<?xml version="1.0" encoding="UTF-8"?>
<svg version="1.1" xmlns="http://www.w3.org/2000/svg" width="1024" height="1024">
<path d="M0 0 C337.92 0 675.84 0 1024 0 C1024 337.92 1024 675.84 1024 1024 C686.08 1024 348.16 1024 0 1024 C0 686.08 0 348.16 0 0 Z " fill="#FEFEFE" transform="translate(0,0)"/>
<path d="M0 0 C1.12112938 -0.00855011 1.12112938 -0.00855011 2.26490784 -0.01727295 C3.84057226 -0.0266588 5.41625575 -0.03323116 6.99194336 -0.03710938 C9.34200707 -0.04672404 11.69115966 -0.07777034 14.04101562 -0.109375 C24.65325596 -0.18284816 34.56680831 1.01267567 44.94140625 3.203125 C46.16037598 3.45698975 47.3793457 3.71085449 48.63525391 3.97241211 C76.47455688 9.93735436 101.9756638 23.79293517 122.75 43.1640625 C124.76466199 45.03866777 126.83376297 46.80988352 128.94140625 48.578125 C151.76119951 68.65954307 166.36878697 96.93340196 174.25390625 125.890625 C174.52114502 126.85339355 174.78838379 127.81616211 175.0637207 128.80810547 C176.69171162 135.05723041 177.28191553 140.75280583 176.94140625 147.203125 C175.84183594 147.56664062 174.74226563 147.93015625 173.609375 148.3046875 C146.06135878 157.59043038 122.0396139 175.01108433 108.68554688 201.34790039 C107.44895033 204.43087191 107.51159945 206.94887348 107.94140625 210.203125 C109.68869403 213.93115965 109.68869403 213.93115965 112.94140625 216.203125 C114.97963117 216.51478614 114.97963117 216.51478614 117.25390625 216.578125 C118.01316406 216.62710938 118.77242187 216.67609375 119.5546875 216.7265625 C123.97657116 215.75678769 126.25167713 212.2455923 128.65234375 208.6171875 C129.20148438 207.69679688 129.750625 206.77640625 130.31640625 205.828125 C144.52521252 184.16770793 166.82611497 170.50917245 191.94140625 165.203125 C221.20888765 160.69354368 248.99799662 167.31936594 272.88085938 184.66796875 C285.33368117 194.04879479 295.49450138 205.13071646 303.94140625 218.203125 C304.58851563 219.20085937 305.235625 220.19859375 305.90234375 221.2265625 C313.36915635 233.38866337 317.6711996 246.38105156 320.94140625 260.203125 C321.24175781 261.33621094 321.54210937 262.46929687 321.8515625 263.63671875 C328.46377415 291.22348086 323.26724113 322.96778061 310.94140625 348.203125 C310.42707031 349.30527344 309.91273438 350.40742187 309.3828125 351.54296875 C295.14709262 381.2966096 270.2626992 405.28297876 240.94140625 420.203125 C240.28140625 420.203125 239.62140625 420.203125 238.94140625 420.203125 C238.66167969 419.47609375 238.38195312 418.7490625 238.09375 418 C233.90666139 407.4986202 229.30139597 397.95140815 220.94140625 390.203125 C220.94140625 389.543125 220.94140625 388.883125 220.94140625 388.203125 C219.95140625 387.873125 218.96140625 387.543125 217.94140625 387.203125 C217.94140625 386.543125 217.94140625 385.883125 217.94140625 385.203125 C217.03648437 384.79900391 217.03648437 384.79900391 216.11328125 384.38671875 C213.91717435 383.18991948 212.81678504 382.13298434 211.19140625 380.265625 C188.7357919 357.1849079 152.68348047 344.87595097 122.20166016 336.81201172 C119.99649483 336.21796524 117.80250793 335.59393972 115.609375 334.95703125 C98.65950139 330.05505835 81.40603298 326.43252021 64.00390625 323.55029297 C61.86562156 323.19036863 59.73174026 322.80978347 57.59765625 322.42578125 C49.73684822 321.03091293 41.88515211 319.88655588 33.94140625 319.078125 C33.20817139 319.00263428 32.47493652 318.92714355 31.71948242 318.84936523 C15.86378657 317.34213105 -0.01589034 316.9629527 -15.93359375 316.953125 C-16.93004913 316.95245026 -17.92650452 316.95177551 -18.95315552 316.95108032 C-62.62444166 316.99755254 -109.55133404 320.68774813 -150.05859375 338.203125 C-151.65915077 338.7349476 -153.26322555 339.25633342 -154.87109375 339.765625 C-167.48919173 344.30814027 -179.67115331 351.79662272 -190.05859375 360.203125 C-190.88359375 360.86441406 -191.70859375 361.52570313 -192.55859375 362.20703125 C-207.5383439 374.91641302 -217.54005025 391.30617449 -222.26953125 410.3125 C-222.9617833 412.84847285 -223.78289632 414.91796264 -225.05859375 417.203125 C-233.7128223 411.57210696 -242.19346924 405.92015248 -250.05859375 399.203125 C-250.88875 398.49542969 -251.71890625 397.78773438 -252.57421875 397.05859375 C-279.54067471 373.44226499 -298.1383777 339.20744209 -301.05859375 303.203125 C-302.75085265 265.48566047 -293.9835355 229.48449021 -268.37109375 200.828125 C-267.63117188 200.03664063 -266.89125 199.24515625 -266.12890625 198.4296875 C-264.25063407 196.40965893 -262.50029356 194.33019821 -260.74609375 192.203125 C-242.41204504 171.29809474 -211.76140694 156.64697002 -184.05859375 154.203125 C-174.3870516 153.73523101 -164.62562159 153.57581162 -155.05859375 155.203125 C-155.07817139 154.59871582 -155.09774902 153.99430664 -155.11791992 153.37158203 C-155.2325519 147.07228163 -154.60935769 141.24679354 -153.37109375 135.078125 C-153.09990723 133.70853638 -153.09990723 133.70853638 -152.82324219 132.3112793 C-144.10750962 89.8647708 -117.82160872 50.93124314 -81.59765625 27.01953125 C-71.67423275 20.71046767 -61.01047385 14.81179766 -49.90454102 10.88232422 C-48.17955618 10.24763201 -46.50385906 9.48323572 -44.8359375 8.7109375 C-39.65294631 6.45797391 -34.10515751 5.35977936 -28.62109375 4.078125 C-27.52732422 3.81386719 -26.43355469 3.54960937 -25.30664062 3.27734375 C-16.82993416 1.26661386 -8.71728202 0.0534721 0 0 Z " fill="#229D22" transform="translate(496.05859375,182.796875)"/>
<path d="M0 0 C1.89178734 -0.0049926 1.89178734 -0.0049926 3.8217926 -0.01008606 C6.47652754 -0.01511678 9.13115989 -0.01793227 11.78588867 -0.01733398 C15.77465419 -0.01721328 19.76323282 -0.0376737 23.75195312 -0.05664062 C37.95475681 -0.08761687 51.94502825 0.31362117 66.06291199 1.90814209 C69.20985991 2.26119174 72.36052211 2.57344543 75.5116272 2.88684082 C85.2091648 3.88819799 94.80923869 5.31004135 104.37890625 7.16796875 C105.4467334 7.37486328 106.51456055 7.58175781 107.61474609 7.79492188 C136.23953083 13.48737318 165.38060281 21.66993575 191.37890625 35.16796875 C192.04003418 35.50296387 192.70116211 35.83795898 193.38232422 36.18310547 C207.69326611 43.56836376 221.35352231 55.06729416 229.37890625 69.16796875 C229.78238281 69.874375 230.18585938 70.58078125 230.6015625 71.30859375 C236.52342985 82.4306672 237.30890316 95.76731255 234.50390625 107.9765625 C221.5586503 143.44826712 184.14244033 161.966512 152.19140625 177.0703125 C143.79266787 180.95567694 135.22202995 184.28826862 126.51171875 187.40161133 C124.591665 188.09152075 122.68181284 188.80966496 120.7734375 189.53125 C114.13618695 192.02893706 107.44006738 194.36769557 100.75390625 196.73046875 C100.01190979 196.99297424 99.26991333 197.25547974 98.50543213 197.52593994 C87.79152753 201.31232374 77.04448676 204.98141433 66.25390625 208.54296875 C46.49574719 215.02662171 46.49574719 215.02662171 27.37890625 223.16796875 C26.21230469 223.7196875 25.04570312 224.27140625 23.84375 224.83984375 C12.83767962 230.13734881 2.58244305 236.40966921 -7.6015625 243.13671875 C-15.7770254 248.3808886 -15.7770254 248.3808886 -21.62109375 247.16796875 C-26.23983057 245.11302228 -28.86116009 242.31937259 -31.05859375 237.79296875 C-33.70457691 230.8401039 -32.90420086 225.55754958 -30.015625 218.8515625 C-14.75016415 189.47517146 18.81762257 176.215626 48.546875 166.7734375 C51.72534816 165.74921969 54.8120263 164.61200272 57.89746094 163.3359375 C63.82592631 160.94622754 69.85454209 158.90449004 75.9140625 156.875 C77.07393173 156.48350266 78.23380096 156.09200531 79.42881775 155.68864441 C84.35404321 154.02625288 89.28145218 152.37037749 94.20874023 150.71411133 C97.81965499 149.49928817 101.4293896 148.28100715 105.0390625 147.0625 C106.72323021 146.49847221 106.72323021 146.49847221 108.44142151 145.92304993 C109.47016891 145.57566269 110.49891632 145.22827545 111.55883789 144.87036133 C112.46799454 144.56487869 113.37715118 144.25939606 114.31385803 143.94465637 C116.33950796 143.34500579 116.33950796 143.34500579 117.37890625 142.16796875 C114.44362443 141.53080536 111.50625648 140.90843851 108.56640625 140.29296875 C107.77169922 140.11894531 106.97699219 139.94492187 106.15820312 139.765625 C88.85079256 136.18478143 71.42910872 135.79501685 53.81640625 135.85546875 C52.1622319 135.85820297 52.1622319 135.85820297 50.47463989 135.86099243 C34.24830033 135.90614363 18.39513513 136.34772573 2.37890625 139.16796875 C0.82308838 139.42537842 0.82308838 139.42537842 -0.76416016 139.68798828 C-18.55410716 142.67746879 -37.70231155 146.41724709 -52.62109375 157.16796875 C-53.67103516 157.89113281 -53.67103516 157.89113281 -54.7421875 158.62890625 C-62.67692593 164.29871934 -68.42424572 170.31138503 -72.62109375 179.16796875 C-72.93046875 179.80476562 -73.23984375 180.4415625 -73.55859375 181.09765625 C-76.06713383 186.91071547 -76.31828586 192.90297802 -76.62109375 199.16796875 C-84.91046317 196.29470379 -90.247152 189.26322616 -94.43359375 181.7890625 C-96.45839257 177.31985194 -97.20489353 173.03430975 -97.62109375 168.16796875 C-97.71519531 167.08515625 -97.80929687 166.00234375 -97.90625 164.88671875 C-98.55340229 150.15155884 -93.19982899 137.351211 -83.88671875 126.06640625 C-62.67457305 103.31320723 -32.05641727 96.77892408 -2.62109375 92.16796875 C-1.827565 92.03915314 -1.03403625 91.91033752 -0.21646118 91.77761841 C14.83625444 89.38023002 29.60068865 88.72536605 44.83129883 88.83178711 C48.44179613 88.85547131 52.05155328 88.85230467 55.66210938 88.84570312 C75.25551852 88.86825087 94.47915795 90.22851963 113.81640625 93.41796875 C114.46368683 93.52368195 115.11096741 93.62939514 115.77786255 93.73831177 C132.67854004 96.52161694 149.10992845 100.36285304 164.90625 107.06640625 C170.32048855 108.78385875 174.70694619 108.68874319 180.19140625 106.98046875 C183.74375954 104.96050315 184.94329863 103.96810655 186.37890625 100.16796875 C186.90554287 95.42823914 186.91925601 93.22788559 184.75390625 88.98046875 C180.19970839 83.58733971 175.21579108 80.26145312 168.94140625 77.23046875 C168.24764893 76.88983398 167.5538916 76.54919922 166.83911133 76.19824219 C159.83273082 72.81130913 152.6678606 69.88929611 145.37890625 67.16796875 C144.54431885 66.85134277 143.70973145 66.5347168 142.84985352 66.20849609 C126.38212943 60.06414813 109.23120733 56.79020193 91.94140625 53.91796875 C91.19448517 53.79327209 90.44756409 53.66857544 89.67800903 53.5401001 C67.19988358 49.8178913 44.97634474 47.95153457 22.19140625 47.98046875 C21.37518799 47.98074066 20.55896973 47.98101257 19.71801758 47.98129272 C-30.63452976 48.05761036 -88.39493583 51.78815226 -126.93359375 87.98046875 C-136.42978469 97.8323802 -142.68119981 109.02565782 -142.87109375 122.79296875 C-142.75614189 127.64968468 -142.37364206 132.37047326 -141.62109375 137.16796875 C-153.04277974 133.0873664 -158.4933126 123.46042157 -163.62109375 113.16796875 C-168.88716717 101.58969958 -168.62665232 84.46704863 -164.55859375 72.54296875 C-163.63785037 70.3920099 -162.6600306 68.2643949 -161.62109375 66.16796875 C-161.13640625 65.15863281 -160.65171875 64.14929688 -160.15234375 63.109375 C-146.95116216 38.22773616 -120.67106803 23.21905839 -94.62109375 15.16796875 C-93.82944824 14.91563477 -93.03780273 14.66330078 -92.22216797 14.40332031 C-62.36244144 4.89100735 -31.36911067 0.02967597 0 0 Z " fill="#034133" transform="translate(479.62109375,547.83203125)"/>
<path d="M0 0 C4.35811529 0.00008108 8.71612505 -0.006853 13.07421875 -0.02050781 C41.13420035 -0.10682385 69.05478858 0.3533302 97.05859375 2.18530273 C97.78501572 2.23249073 98.51143768 2.27967873 99.25987244 2.32829666 C108.10244843 2.90633342 116.9381112 3.55373782 125.77197266 4.25268555 C129.7222674 4.5633441 133.67351133 4.85901342 137.625 5.15405273 C214.32449091 11.04296275 214.32449091 11.04296275 227.05859375 22.18530273 C226.99609375 24.43530273 226.99609375 24.43530273 226.05859375 27.18530273 C219.31222018 31.81516695 212.45779414 33.39744694 204.44921875 34.62280273 C201.75193736 35.07027799 199.09118137 35.57738504 196.4140625 36.12670898 C166.43767344 42.1870188 135.8884484 44.55048051 105.42719841 46.59967327 C100.60953109 46.92584421 95.79668366 47.28480679 90.98478699 47.68756104 C73.91353859 49.07711394 56.95016358 49.47322046 39.82837582 49.42102218 C36.22878706 49.41201304 32.62919979 49.41400321 29.02960205 49.41438293 C23.01613124 49.41345823 17.00271215 49.40492671 10.98925781 49.39111328 C4.06103768 49.37525639 -2.8671267 49.37012077 -9.79536366 49.37084883 C-17.24182202 49.37152525 -24.6882593 49.36459671 -32.13471127 49.35540223 C-34.25831878 49.35328268 -36.38192284 49.35256277 -38.50553131 49.35216331 C-42.45715785 49.35096711 -46.40873874 49.34123805 -50.36035156 49.33056641 C-51.52189758 49.33101959 -52.6834436 49.33147278 -53.88018799 49.3319397 C-59.66881075 49.30910548 -65.2151267 49.02881992 -70.94140625 48.18530273 C-73.45017306 48.00560917 -75.96087305 47.85140123 -78.47265625 47.72045898 C-79.17226471 47.68317688 -79.87187317 47.64589478 -80.59268188 47.60748291 C-82.09300215 47.52759506 -83.59338074 47.44879619 -85.09381104 47.3710022 C-87.50147721 47.24465027 -89.90870496 47.11174784 -92.31591797 46.97705078 C-99.76536675 46.56166169 -107.21330318 46.16624023 -114.66796875 45.85717773 C-131.48658982 45.08512082 -148.02078238 43.14401824 -164.69140625 40.81030273 C-165.74845764 40.6633194 -166.80550903 40.51633606 -167.89459229 40.36489868 C-178.6419338 38.8572097 -189.35311643 37.21283037 -200.0078125 35.14233398 C-200.80817932 34.99023468 -201.60854614 34.83813538 -202.4331665 34.681427 C-208.95073333 33.36385747 -215.72232995 31.47564592 -220.94140625 27.18530273 C-221.7421875 24.49389648 -221.7421875 24.49389648 -221.94140625 22.18530273 C-205.3547952 7.44506768 -168.30101509 8.33581729 -147.05273438 6.46655273 C-143.55034959 6.14995298 -140.05074327 5.80888218 -136.55078125 5.46655273 C-122.00777951 4.05757234 -107.46777095 2.87761741 -92.87890625 2.06030273 C-91.87716873 2.00265747 -91.87716873 2.00265747 -90.85519409 1.94384766 C-85.55247583 1.64320718 -80.24807267 1.40444864 -74.94140625 1.18530273 C-73.40036224 1.12014969 -73.40036224 1.12014969 -71.82818604 1.05368042 C-47.8896411 0.07872862 -23.95549486 -0.00234461 0 0 Z " fill="#DAE8E3" transform="translate(506.94140625,856.814697265625)"/>
<path d="M0 0 C1.20140625 -0.01611328 2.4028125 -0.03222656 3.640625 -0.04882812 C10.89367561 -0.05280458 18.36366329 0.01609363 24.3996582 4.55224609 C27.03186942 7.24950072 28.0768676 9.70459309 28.25 13.375 C27.59152211 18.5605134 25.76710327 21.96491395 21.75 25.3125 C18.33363942 26.45128686 15.65700431 26.45512524 12.0546875 26.48828125 C10.6930152 26.50820355 9.33136123 26.52941125 7.96972656 26.55175781 C7.25949341 26.56291626 6.54926025 26.57407471 5.81750488 26.58557129 C-24.34618942 27.12801733 -48.32357478 35.72585065 -69.6015625 57.74609375 C-80.40263433 70.50512881 -86.3298117 85.03034721 -89.6875 101.25 C-90.86784512 106.61343635 -92.21823648 109.59087214 -96.25 113.3125 C-99.97466849 115.17483425 -104.19495313 114.88380829 -108.25 114.3125 C-111.37578143 112.6404253 -113.64281175 110.5268765 -115.25 107.3125 C-117.38618924 85.09613192 -107.56628239 64.04700532 -94.25 46.73046875 C-90.71718102 42.45934581 -87.04485808 38.35151256 -83.25 34.3125 C-82.734375 33.72082031 -82.21875 33.12914062 -81.6875 32.51953125 C-61.25614751 10.11953282 -29.3939726 -0.07987493 0 0 Z " fill="#FBFEFA" transform="translate(506.25,227.6875)"/>
<path d="M0 0 C3.52814686 3.29805032 4.85205685 5.15268921 5.6875 9.9375 C5.34034629 13.89203358 4.15661904 16.53606996 1.421875 19.4140625 C-2.53681916 22.00636867 -6.92469096 22.96789148 -11.46655273 24.16137695 C-27.41669578 28.39101156 -39.81340167 38.46163994 -48.171875 52.58984375 C-53.33591131 61.68694067 -56.75619835 70.26651818 -57.4375 80.8125 C-57.84827148 86.57151618 -59.86266016 89.62517796 -63.6875 93.875 C-67.39648378 95.67937049 -70.96352091 95.64265946 -75 95 C-79.33743651 92.54840545 -81.38323353 89.68011346 -83 85 C-85.67538934 66.33752801 -75.98837518 45.59114678 -65.25 30.8984375 C-53.37939824 15.60679427 -21.1666524 -14.1111016 0 0 Z " fill="#FAFEF9" transform="translate(324,384)"/>
<path d="M0 0 C1.12112938 -0.00855011 1.12112938 -0.00855011 2.26490784 -0.01727295 C3.84057226 -0.0266588 5.41625575 -0.03323116 6.99194336 -0.03710938 C9.34200707 -0.04672404 11.69115966 -0.07777034 14.04101562 -0.109375 C24.65325596 -0.18284816 34.56680831 1.01267567 44.94140625 3.203125 C46.16037598 3.45698975 47.3793457 3.71085449 48.63525391 3.97241211 C69.83005244 8.51368059 90.98142336 17.58525639 107.94140625 31.203125 C106.95140625 31.533125 105.96140625 31.863125 104.94140625 32.203125 C104.94140625 31.543125 104.94140625 30.883125 104.94140625 30.203125 C104.13703125 30.079375 104.13703125 30.079375 103.31640625 29.953125 C99.34172429 28.69796227 96.15289681 26.18746108 92.94140625 23.578125 C90.41849446 21.84362315 87.84477394 21.15116343 84.94140625 20.203125 C83.27124109 19.20897907 81.60419952 18.2095525 79.94140625 17.203125 C77.75010091 16.50733046 77.75010091 16.50733046 75.94140625 16.203125 C75.94140625 15.543125 75.94140625 14.883125 75.94140625 14.203125 C74.80703125 13.935 73.67265625 13.666875 72.50390625 13.390625 C68.58244348 12.42244858 64.81422513 11.16771027 61.01953125 9.7890625 C58.65961521 9.02220885 58.65961521 9.02220885 54.94140625 9.203125 C54.61140625 8.543125 54.28140625 7.883125 53.94140625 7.203125 C50.76673889 6.59520997 47.64876648 6.26253006 44.4296875 5.9921875 C43.56730469 5.91742188 42.70492188 5.84265625 41.81640625 5.765625 C41.00945312 5.70503906 40.2025 5.64445313 39.37109375 5.58203125 C36.94140625 5.203125 36.94140625 5.203125 34.89208984 4.19384766 C30.68068915 2.77982614 26.7135159 2.93701973 22.30078125 2.97265625 C20.91660004 2.97334358 20.91660004 2.97334358 19.50445557 2.9740448 C17.56122546 2.97705789 15.61799757 2.98491589 13.67480469 2.99731445 C10.68806493 3.01564551 7.70163406 3.01782351 4.71484375 3.01757812 C2.82682022 3.02249079 0.93879879 3.02831801 -0.94921875 3.03515625 C-1.84707092 3.03626907 -2.7449231 3.0373819 -3.66998291 3.03852844 C-7.68410476 2.66559251 -7.68410476 2.66559251 -11.05859375 4.203125 C-12.56812089 4.47573804 -14.08762573 4.69366639 -15.609375 4.88671875 C-16.53556641 5.00982422 -17.46175781 5.13292969 -18.41601562 5.25976562 C-20.37404663 5.51212256 -22.33237912 5.76215205 -24.29101562 6.00976562 C-25.68610352 6.19635742 -25.68610352 6.19635742 -27.109375 6.38671875 C-27.96184814 6.49556396 -28.81432129 6.60440918 -29.69262695 6.71655273 C-32.11045345 7.21379019 -33.89899555 8.03311189 -36.05859375 9.203125 C-37.38795928 9.55194612 -38.72183892 9.88378912 -40.05859375 10.203125 C-60.11865671 17.03645054 -80.85127607 27.33064734 -96.05859375 42.203125 C-97.42682893 43.37771796 -98.80157286 44.54478379 -100.18359375 45.703125 C-104.55882686 49.51494781 -108.27429843 53.81730186 -112.05859375 58.203125 C-112.66832031 58.863125 -113.27804687 59.523125 -113.90625 60.203125 C-117.86969169 64.52371199 -120.91206174 68.99583822 -123.796875 74.1015625 C-125.05859375 76.203125 -125.05859375 76.203125 -127.05859375 78.203125 C-127.38859375 79.193125 -127.71859375 80.183125 -128.05859375 81.203125 C-128.51363281 81.64269531 -128.96867188 82.08226562 -129.4375 82.53515625 C-131.58618622 84.74597316 -132.65778074 87.11815163 -133.99609375 89.890625 C-134.516875 90.963125 -135.03765625 92.035625 -135.57421875 93.140625 C-136.0640625 94.15125 -136.55390625 95.161875 -137.05859375 96.203125 C-137.78605389 97.59984847 -138.51494941 98.99582656 -139.24609375 100.390625 C-140.95247142 103.7963582 -142.14799247 107.25706 -143.27734375 110.890625 C-144.06109028 113.21051474 -145.03892037 115.35338307 -146.05859375 117.578125 C-149.04941585 124.79735076 -149.72069065 132.6962448 -150.7331543 140.390625 C-151.05859375 142.203125 -151.05859375 142.203125 -152.05859375 144.203125 C-152.04986338 147.03176561 -151.92719367 149.84618561 -151.80078125 152.671875 C-151.88585937 153.5071875 -151.9709375 154.3425 -152.05859375 155.203125 C-155.72108944 157.64478879 -157.35910608 157.39960707 -161.7109375 157.29296875 C-163.05924061 157.27250899 -164.4075481 157.25233653 -165.75585938 157.23242188 C-167.86192218 157.18938145 -169.96769355 157.14136262 -172.07348633 157.08666992 C-181.18505208 156.86717926 -189.26369796 157.5355886 -198.05859375 160.203125 C-201.21484375 160.953125 -201.21484375 160.953125 -204.37109375 161.703125 C-208.83729176 162.82257463 -212.88231348 164.23318148 -217.05859375 166.203125 C-218.1878125 166.68458984 -218.1878125 166.68458984 -219.33984375 167.17578125 C-223.30191141 168.86737832 -226.65830195 170.53146716 -230.05859375 173.203125 C-231.7225142 173.87661661 -233.38891403 174.5440409 -235.05859375 175.203125 C-236.04859375 176.193125 -236.04859375 176.193125 -237.05859375 177.203125 C-242.47035846 181.203125 -242.47035846 181.203125 -247.05859375 181.203125 C-247.29320312 181.77546875 -247.5278125 182.3478125 -247.76953125 182.9375 C-249.3526596 185.71996801 -251.25774625 187.37382714 -253.68359375 189.453125 C-254.50085938 190.15953125 -255.318125 190.8659375 -256.16015625 191.59375 C-257.09988281 192.39039063 -257.09988281 192.39039063 -258.05859375 193.203125 C-259.04859375 192.873125 -260.03859375 192.543125 -261.05859375 192.203125 C-252.17017472 183.34514576 -242.99775934 176.3524576 -232.05859375 170.203125 C-231.17518311 169.70256592 -231.17518311 169.70256592 -230.27392578 169.19189453 C-207.57380359 156.54329577 -180.83762134 150.81821496 -155.05859375 155.203125 C-155.08796021 154.29651123 -155.08796021 154.29651123 -155.11791992 153.37158203 C-155.2325519 147.07228163 -154.60935769 141.24679354 -153.37109375 135.078125 C-153.19030273 134.16506592 -153.00951172 133.25200684 -152.82324219 132.3112793 C-144.10750962 89.8647708 -117.82160872 50.93124314 -81.59765625 27.01953125 C-71.67423275 20.71046767 -61.01047385 14.81179766 -49.90454102 10.88232422 C-48.17955618 10.24763201 -46.50385906 9.48323572 -44.8359375 8.7109375 C-39.65294631 6.45797391 -34.10515751 5.35977936 -28.62109375 4.078125 C-27.52732422 3.81386719 -26.43355469 3.54960937 -25.30664062 3.27734375 C-16.82993416 1.26661386 -8.71728202 0.0534721 0 0 Z " fill="#81E04B" transform="translate(496.05859375,182.796875)"/>
<path d="M0 0 C0 3.15084005 -0.45473667 4.33871316 -2 7 C-2.66 7.66 -3.32 8.32 -4 9 C-4.33 9.99 -4.66 10.98 -5 12 C-5.45503906 12.43957031 -5.91007813 12.87914062 -6.37890625 13.33203125 C-8.52759247 15.54284816 -9.59918699 17.91502663 -10.9375 20.6875 C-11.45828125 21.76 -11.9790625 22.8325 -12.515625 23.9375 C-13.00546875 24.948125 -13.4953125 25.95875 -14 27 C-14.72746014 28.39672347 -15.45635566 29.79270156 -16.1875 31.1875 C-17.89387767 34.5932332 -19.08939872 38.053935 -20.21875 41.6875 C-21.00249653 44.00738974 -21.98032662 46.15025807 -23 48.375 C-25.9908221 55.59422576 -26.6620969 63.4931198 -27.67456055 71.1875 C-28 73 -28 73 -29 75 C-28.99126963 77.82864061 -28.86859992 80.64306061 -28.7421875 83.46875 C-28.82726562 84.3040625 -28.91234375 85.139375 -29 86 C-32.66249569 88.44166379 -34.30051233 88.19648207 -38.65234375 88.08984375 C-40.00064686 88.06938399 -41.34895435 88.04921153 -42.69726562 88.02929688 C-44.80332843 87.98625645 -46.9090998 87.93823762 -49.01489258 87.88354492 C-58.12645833 87.66405426 -66.20510421 88.3324636 -75 91 C-78.15625 91.75 -78.15625 91.75 -81.3125 92.5 C-85.77869801 93.61944963 -89.82371973 95.03005648 -94 97 C-94.7528125 97.32097656 -95.505625 97.64195312 -96.28125 97.97265625 C-100.24331766 99.66425332 -103.5997082 101.32834216 -107 104 C-108.66392045 104.67349161 -110.33032028 105.3409159 -112 106 C-112.99 106.99 -112.99 106.99 -114 108 C-119.41176471 112 -119.41176471 112 -124 112 C-124.23460937 112.57234375 -124.46921875 113.1446875 -124.7109375 113.734375 C-126.29406585 116.51684301 -128.1991525 118.17070214 -130.625 120.25 C-131.44226563 120.95640625 -132.25953125 121.6628125 -133.1015625 122.390625 C-134.04128906 123.18726563 -134.04128906 123.18726563 -135 124 C-135.99 123.67 -136.98 123.34 -138 123 C-129.11158097 114.14202076 -119.93916559 107.1493326 -109 101 C-108.11658936 100.49944092 -108.11658936 100.49944092 -107.21533203 99.98876953 C-84.51520984 87.34017077 -57.77902759 81.61508996 -32 86 C-32.01957764 85.39559082 -32.03915527 84.79118164 -32.05932617 84.16845703 C-32.17395815 77.86915663 -31.55076394 72.04366854 -30.3125 65.875 C-30.13170898 64.96194092 -29.95091797 64.04888184 -29.76464844 63.1081543 C-25.28804456 41.30663586 -16.76644757 18.03104982 -2 1 C-1.34 0.67 -0.68 0.34 0 0 Z " fill="#5FC33E" transform="translate(373,252)"/>
<path d="M0 0 C1.875 0.3125 1.875 0.3125 4 1 C7.2581981 5.88729715 7.22896999 11.22718093 7 17 C6.14393958 20.40186102 5.0151351 22.17134808 2 24 C-2.29777719 25.11373241 -6.58980733 25.04712583 -11 25 C-13.76114867 24.98335404 -16.52226942 24.96822782 -19.28344727 24.95727539 C-21.17470737 24.9443967 -23.06593868 24.91821663 -24.95678711 24.87670898 C-31.15934947 24.79236978 -37.00428998 25.32261502 -43 27 C-43.495 27.495 -43.495 27.495 -44 28 C-45.03125 28.103125 -46.0625 28.20625 -47.125 28.3125 C-51.68604463 29.1217176 -54.06977192 30.59819395 -58 33 C-59.6653323 33.66999296 -61.33214491 34.3363121 -63 35 C-64.89076345 35.92684483 -66.76574332 36.88646959 -68.625 37.875 C-69.56601562 38.36742187 -70.50703125 38.85984375 -71.4765625 39.3671875 C-74.03963076 41.02564343 -75.27954119 42.52396877 -77 45 C-77.804375 45.474375 -78.60875 45.94875 -79.4375 46.4375 C-82.40409872 48.24640166 -83.86124531 50.27794858 -86 53 C-87.423125 54.11375 -87.423125 54.11375 -88.875 55.25 C-92.22274708 57.93157071 -94.29219314 61.15133546 -96.5625 64.7578125 C-97.80654157 66.69824691 -99.12969 68.45003244 -100.5625 70.25 C-103.6661996 74.48870949 -105.21878774 79.39903681 -106.984375 84.3046875 C-108 87 -108 87 -109 88 C-108.95875 88.804375 -108.9175 89.60875 -108.875 90.4375 C-109.0439643 95.25298245 -110.48992822 99.45180761 -112 104 C-112.66 104 -113.32 104 -114 104 C-110.7301407 77.71205224 -98.87518573 56.73233716 -78.13671875 40.25 C-59.43874779 26.83775682 -39.89013317 22.60646386 -17.2800293 22.48876953 C-15.1850575 22.4730626 -13.09083783 22.44012938 -10.99609375 22.40625 C-9.77075928 22.39916016 -8.5454248 22.39207031 -7.28295898 22.38476562 C-2.72125467 21.85012994 -0.0990091 20.32639029 2.8125 16.8125 C4.35800895 13.15208406 4.71814047 9.87795856 4 6 C2.87699006 3.70050346 1.61399912 2.0174989 0 0 Z " fill="#6ACB3F" transform="translate(529,231)"/>
<path d="M0 0 C5.03555223 0.11854188 10.07091893 0.24280963 15.10620117 0.37231445 C16.81807647 0.41554445 18.52999157 0.45722765 20.24194336 0.49731445 C22.70699034 0.55530714 25.17183918 0.61891697 27.63671875 0.68359375 C28.39836838 0.70030624 29.16001801 0.71701874 29.94474792 0.73423767 C33.7349605 0.83917914 37.3104722 1.10392627 41 2 C41 2.99 41 3.98 41 5 C39.7934375 4.67644531 38.586875 4.35289062 37.34375 4.01953125 C31.0824207 2.63641339 24.88849235 2.65773592 18.5 2.6875 C16.63867432 2.69487183 16.63867432 2.69487183 14.73974609 2.70239258 C-16.39057087 3.09785915 -43.51030682 16.01546157 -65.875 37.375 C-81.07509774 53.32487834 -91.13853033 72.58394679 -96 94 C-96.33 94 -96.66 94 -97 94 C-97.09765625 87.84765625 -97.09765625 87.84765625 -97 86 C-96.505 85.505 -96.505 85.505 -96 85 C-96.061875 84.113125 -96.12375 83.22625 -96.1875 82.3125 C-95.95248734 78.16060972 -94.39150983 76.33361977 -92 73 C-91.23060319 70.77397385 -91.23060319 70.77397385 -91 69 C-90.34 69 -89.68 69 -89 69 C-88.87625 67.4221875 -88.87625 67.4221875 -88.75 65.8125 C-87.93928585 61.69136976 -86.78543808 60.0465729 -84 57 C-83.67 56.34 -83.34 55.68 -83 55 C-82.34 55 -81.68 55 -81 55 C-80.7525 54.29488281 -80.505 53.58976562 -80.25 52.86328125 C-78.83896341 49.63112557 -77.0749274 47.03671098 -75 44.1875 C-74.29875 43.21167969 -73.5975 42.23585938 -72.875 41.23046875 C-72.25625 40.49441406 -71.6375 39.75835937 -71 39 C-70.34 39 -69.68 39 -69 39 C-69 38.34 -69 37.68 -69 37 C-68.34 37 -67.68 37 -67 37 C-66.34 35.68 -65.68 34.36 -65 33 C-64.34 33 -63.68 33 -63 33 C-62.67 32.01 -62.34 31.02 -62 30 C-60.4765625 28.71875 -60.4765625 28.71875 -58.625 27.5 C-56.69012899 26.21557499 -55.03583131 25.03653389 -53.40625 23.375 C-52 22 -52 22 -49.875 21.5 C-49.25625 21.335 -48.6375 21.17 -48 21 C-47.505 19.515 -47.505 19.515 -47 18 C-44.34765625 16.39453125 -44.34765625 16.39453125 -41.0625 14.8125 C-39.98097656 14.28269531 -38.89945312 13.75289062 -37.78515625 13.20703125 C-35 12 -35 12 -33 12 C-33 11.34 -33 10.68 -33 10 C-29.535 9.505 -29.535 9.505 -26 9 C-25.67 8.01 -25.34 7.02 -25 6 C-24.01 6.12375 -24.01 6.12375 -23 6.25 C-19.94832448 5.99569371 -18.97928542 5.50702935 -16.4375 4 C-11.17650928 1.13220468 -5.83359791 1.64998413 0 2 C0 1.34 0 0.68 0 0 Z " fill="#6CCE41" transform="translate(488,226)"/>
<path d="M0 0 C4.81564097 -0.07554099 9.63091901 -0.12923948 14.44702148 -0.16479492 C16.07696558 -0.17965472 17.70687141 -0.19994836 19.33666992 -0.22631836 C30.9186149 -0.40868304 41.67065312 0.58994435 53 3 C54.2183252 3.25394531 55.43665039 3.50789062 56.69189453 3.76953125 C77.88672538 8.30630618 99.04124598 17.38311809 116 31 C114.515 31.495 114.515 31.495 113 32 C113 31.34 113 30.68 113 30 C112.46375 29.9175 111.9275 29.835 111.375 29.75 C107.40031804 28.49483727 104.21149056 25.98433608 101 23.375 C98.47708821 21.64049815 95.90336769 20.94803843 93 20 C91.32983484 19.00585407 89.66279327 18.0064275 88 17 C85.80869466 16.30420546 85.80869466 16.30420546 84 16 C84 15.34 84 14.68 84 14 C82.865625 13.731875 81.73125 13.46375 80.5625 13.1875 C76.64103723 12.21932358 72.87281888 10.96458527 69.078125 9.5859375 C66.71820896 8.81908385 66.71820896 8.81908385 63 9 C62.505 8.01 62.505 8.01 62 7 C58.82533264 6.39208497 55.70736023 6.05940506 52.48828125 5.7890625 C51.19470703 5.67691406 51.19470703 5.67691406 49.875 5.5625 C49.06804688 5.50191406 48.26109375 5.44132813 47.4296875 5.37890625 C45 5 45 5 42.92553711 4.00219727 C38.85904986 2.60914626 35.03343093 2.64404707 30.76171875 2.5859375 C29.44056816 2.55688828 29.44056816 2.55688828 28.09272766 2.5272522 C25.29108234 2.46767149 22.48939544 2.42115735 19.6875 2.375 C17.78318562 2.33680041 15.87888815 2.29774753 13.97460938 2.2578125 C9.31654428 2.16198767 4.65839832 2.0778774 0 2 C0 1.34 0 0.68 0 0 Z " fill="#6DCE41" transform="translate(488,183)"/>
<path d="M0 0 C1.15886719 0.35707031 2.31773437 0.71414063 3.51171875 1.08203125 C6.3125 2.1875 6.3125 2.1875 7.3125 4.1875 C8.5190625 4.373125 8.5190625 4.373125 9.75 4.5625 C14.58431982 5.41062628 18.80163417 7.29627773 23.3125 9.1875 C30.25594229 12.01954969 37.25111469 14.66365886 44.3125 17.1875 C44.3125 17.8475 44.3125 18.5075 44.3125 19.1875 C45.281875 19.455625 46.25125 19.72375 47.25 20 C48.260625 20.391875 49.27125 20.78375 50.3125 21.1875 C50.8075 22.6725 50.8075 22.6725 51.3125 24.1875 C52.22 24.31125 53.1275 24.435 54.0625 24.5625 C59.83374141 25.67235412 62.18898622 28.06398622 66.3125 32.1875 C68.47870544 33.48269995 68.47870544 33.48269995 70.3125 34.1875 C70.3125 34.8475 70.3125 35.5075 70.3125 36.1875 C72.2925 36.6825 72.2925 36.6825 74.3125 37.1875 C73.9825 38.1775 73.6525 39.1675 73.3125 40.1875 C72.31992187 39.48625 71.32734375 38.785 70.3046875 38.0625 C46.9557206 21.69185162 21.25646727 9.81681084 -6.2109375 2.046875 C-8.6875 1.1875 -8.6875 1.1875 -10.6875 -0.8125 C-6.74986453 -2.33894141 -3.9201241 -1.24232376 0 0 Z " fill="#1D6C34" transform="translate(629.6875,518.8125)"/>
<path d="M0 0 C9.97371123 -0.30531769 19.05016439 -0.14821905 28.8046875 2.2734375 C32.73510707 3.16715149 36.5794532 3.48709084 40.59765625 3.69140625 C43.3192961 4.04101527 45.47626432 4.94536574 48 6 C50.33157492 6.34541851 52.66508361 6.67794257 55 7 C56.63793173 7.47868399 58.2757866 7.95763401 59.91308594 8.43847656 C64.03971312 9.54882314 68.24451603 10.30994912 72.4375 11.125 C73.35982422 11.30675781 74.28214844 11.48851562 75.23242188 11.67578125 C77.4877747 12.11984035 79.743623 12.56118018 82 13 C82 13.66 82 14.32 82 15 C82.99 15.33 83.98 15.66 85 16 C79.84272979 17.73326813 75.38339459 16.13027141 70.3125 14.8125 C68.41823035 14.34139481 66.52369414 13.87136024 64.62890625 13.40234375 C63.68160645 13.16499512 62.73430664 12.92764648 61.75830078 12.68310547 C49.26604475 9.58934265 36.69034047 7.11628858 24 5 C22.47463623 4.74404053 22.47463623 4.74404053 20.91845703 4.48291016 C13.94705925 3.31332261 6.97418861 2.15282395 0 1 C0 0.67 0 0.34 0 0 Z " fill="#1C7B2F" transform="translate(534,501)"/>
<path d="M0 0 C0 0.66 0 1.32 0 2 C0.61359375 2.09023438 1.2271875 2.18046875 1.859375 2.2734375 C4 3 4 3 5.265625 4.6015625 C7.50875143 9.21243349 8.78976312 12.76781931 8 18 C6.0467078 21.32783116 4.97501049 22.71192872 1.25 23.8125 C0.5075 23.874375 -0.235 23.93625 -1 24 C-0.175 23.01 0.65 22.02 1.5 21 C4.52005807 16.72877502 4.82080196 14.17105233 4 9 C2.22576548 5.71947658 -0.09210458 3.53982971 -3.3125 1.625 C-15.74119283 -1.26539368 -28.4340863 4.84482343 -39 11 C-47.36584289 16.47128395 -54.9898337 22.88029985 -62 30 C-62 26.47899095 -61.41671132 25.89968686 -59.1875 23.3125 C-58.66542969 22.68988281 -58.14335937 22.06726563 -57.60546875 21.42578125 C-56 20 -56 20 -53 20 C-53 19.34 -53 18.68 -53 18 C-52.34 18 -51.68 18 -51 18 C-51 17.34 -51 16.68 -51 16 C-49.1015625 14.4921875 -49.1015625 14.4921875 -46.625 12.875 C-45.81289063 12.33617187 -45.00078125 11.79734375 -44.1640625 11.2421875 C-42 10 -42 10 -40 10 C-39.67 9.01 -39.34 8.02 -39 7 C-37.0187415 6.27954236 -35.01495907 5.61998741 -33 5 C-32.23171875 4.53078125 -31.4634375 4.0615625 -30.671875 3.578125 C-22.06665939 -1.50448773 -9.43339239 -4.7166962 0 0 Z " fill="#56B634" transform="translate(324,381)"/>
<path d="M0 0 C0.81533203 0.09071777 1.63066406 0.18143555 2.47070312 0.27490234 C6.98971801 0.78876713 11.49447221 1.37800718 16 2 C18.66589073 2.33988629 21.332828 2.67025116 24 3 C24 3.33 24 3.66 24 4 C21.87506859 4.02693575 19.75004088 4.04636628 17.625 4.0625 C16.44164062 4.07410156 15.25828125 4.08570313 14.0390625 4.09765625 C11 4 11 4 9 3 C6.91943431 2.85747537 4.83471829 2.77367251 2.75 2.71875 C0.87828125 2.66267578 0.87828125 2.66267578 -1.03125 2.60546875 C-2.99578125 2.55326172 -2.99578125 2.55326172 -5 2.5 C-7.58345011 2.43134532 -10.16679679 2.35863935 -12.75 2.28125 C-13.89984375 2.25095703 -15.0496875 2.22066406 -16.234375 2.18945312 C-19 2 -19 2 -21 1 C-31.69185496 -0.1831151 -42.50811155 -0.10316689 -53.25 -0.125 C-55.13090332 -0.13188843 -55.13090332 -0.13188843 -57.04980469 -0.13891602 C-64.08829177 -0.12735477 -71.02376526 0.17739686 -78.03564453 0.77734375 C-82.13448921 1.08521283 -86.20467649 1.11153738 -90.3125 1.0625 C-91.06466797 1.05798828 -91.81683594 1.05347656 -92.59179688 1.04882812 C-94.39456815 1.03734551 -96.19729686 1.01943033 -98 1 C-98 0.67 -98 0.34 -98 0 C-65.75730061 -3.57301944 -32.23290925 -3.64701575 0 0 Z " fill="#B4E3B7" transform="translate(528,501)"/>
<path d="M0 0 C0 3.15084005 -0.45473667 4.33871316 -2 7 C-2.66 7.66 -3.32 8.32 -4 9 C-4.33 9.99 -4.66 10.98 -5 12 C-5.45503906 12.43957031 -5.91007812 12.87914062 -6.37890625 13.33203125 C-8.52759247 15.54284816 -9.59918699 17.91502663 -10.9375 20.6875 C-11.45828125 21.76 -11.9790625 22.8325 -12.515625 23.9375 C-13.00546875 24.948125 -13.4953125 25.95875 -14 27 C-14.72746014 28.39672347 -15.45635566 29.79270156 -16.1875 31.1875 C-17.89387767 34.5932332 -19.08939872 38.053935 -20.21875 41.6875 C-21.00249653 44.00738974 -21.98032662 46.15025807 -23 48.375 C-25.43169648 54.22220909 -26.14724977 60.3370168 -26.9609375 66.57568359 C-27.06921875 67.37570801 -27.1775 68.17573242 -27.2890625 69 C-27.42368896 70.0828125 -27.42368896 70.0828125 -27.56103516 71.1875 C-28 73 -28 73 -30 75 C-31.68068003 58.71607793 -24.97477831 42.36890351 -18 28 C-17.35092542 26.61357933 -16.70249791 25.22685556 -16.0546875 23.83984375 C-6.19990597 3.09995299 -6.19990597 3.09995299 0 0 Z " fill="#70D03E" transform="translate(373,252)"/>
<path d="M0 0 C0.66 0.33 1.32 0.66 2 1 C1 3 1 3 -1.3125 4.3125 C-4.31971999 6.20075441 -5.81584304 8.22016386 -8 11 C-9.423125 12.11375 -9.423125 12.11375 -10.875 13.25 C-14.22274708 15.93157071 -16.29219314 19.15133546 -18.5625 22.7578125 C-19.80654157 24.69824691 -21.12969 26.45003244 -22.5625 28.25 C-25.6661996 32.48870949 -27.21878774 37.39903681 -28.984375 42.3046875 C-30 45 -30 45 -31 46 C-30.938125 47.2065625 -30.938125 47.2065625 -30.875 48.4375 C-31.0439643 53.25298245 -32.48992822 57.45180761 -34 62 C-34.66 62 -35.32 62 -36 62 C-33.16467497 39.20547901 -24.06818712 18.77661203 -6.27734375 3.69140625 C-4.2190382 2.16268189 -2.39694375 0.90918556 0 0 Z " fill="#5BC632" transform="translate(451,273)"/>
<path d="M0 0 C-1.66584638 2.75177354 -2.65580355 3.86650557 -5.69921875 5.046875 C-6.68535156 5.27890625 -7.67148437 5.5109375 -8.6875 5.75 C-10.17830078 6.11351562 -10.17830078 6.11351562 -11.69921875 6.484375 C-12.83810547 6.73960937 -12.83810547 6.73960937 -14 7 C-14 7.66 -14 8.32 -14 9 C-16.640808 10.9145858 -19.33673282 12.60856363 -22.14453125 14.265625 C-23.21767578 14.90757812 -23.21767578 14.90757812 -24.3125 15.5625 C-24.98925781 15.95566406 -25.66601562 16.34882813 -26.36328125 16.75390625 C-28.31092628 17.99400836 -28.31092628 17.99400836 -29 21 C-29.66 21.33 -30.32 21.66 -31 22 C-31.66 22.99 -32.32 23.98 -33 25 C-33.99 25 -34.98 25 -36 25 C-31.34146748 14.42322974 -12.00515641 -1.05927851 0 0 Z " fill="#20922F" transform="translate(671,355)"/>
<path d="M0 0 C1.29421875 -0.02449219 2.5884375 -0.04898437 3.921875 -0.07421875 C12.42545605 -0.09993522 19.38191192 1.12881593 27.25 4.375 C23.69426713 5.38009594 21.45420556 5.17744814 17.8125 4.4375 C4.55383517 2.22273432 -9.42995985 2.83064752 -22.75 4.375 C-22.75 3.715 -22.75 3.055 -22.75 2.375 C-15.20706689 -0.01806254 -7.86738229 0.00774349 0 0 Z " fill="#DBF9DE" transform="translate(706.75,344.625)"/>
<path d="M0 0 C1.20140625 -0.01611328 2.4028125 -0.03222656 3.640625 -0.04882812 C10.3195556 -0.05248982 16.72445529 0.11293947 22.75 3.3125 C23.245 4.3025 23.245 4.3025 23.75 5.3125 C22.50605469 4.98636719 21.26210938 4.66023437 19.98046875 4.32421875 C14.32163677 3.06928498 8.83631005 3.05390318 3.0625 3.125 C1.55333008 3.1259668 1.55333008 3.1259668 0.01367188 3.12695312 C-4.87975862 3.15598468 -9.42193414 3.495123 -14.25 4.3125 C-16.54487216 4.23147376 -18.83832053 4.08500118 -21.125 3.875 C-22.27742188 3.77316406 -23.42984375 3.67132813 -24.6171875 3.56640625 C-25.48601562 3.48261719 -26.35484375 3.39882812 -27.25 3.3125 C-27.25 2.9825 -27.25 2.6525 -27.25 2.3125 C-18.11345284 0.6491457 -9.28004533 -0.02521751 0 0 Z " fill="#DAFBC7" transform="translate(506.25,227.6875)"/>
<path d="M0 0 C6.2452261 -0.47007078 10.77438879 1.10012906 16.5 3.5 C17.37712646 3.8609375 18.25425293 4.221875 19.15795898 4.59375 C31.40453885 9.73095892 42.51248656 15.8018606 53 24 C52.01 24.33 51.02 24.66 50 25 C50 24.34 50 23.68 50 23 C49.46375 22.9175 48.9275 22.835 48.375 22.75 C44.40031804 21.49483727 41.21149056 18.98433608 38 16.375 C35.47708821 14.64049815 32.90336769 13.94803843 30 13 C28.32983484 12.00585407 26.66279327 11.0064275 25 10 C22.80869466 9.30420546 22.80869466 9.30420546 21 9 C21 8.34 21 7.68 21 7 C19.865625 6.731875 18.73125 6.46375 17.5625 6.1875 C13.64103723 5.21932358 9.87281888 3.96458527 6.078125 2.5859375 C3.71820896 1.81908385 3.71820896 1.81908385 0 2 C0 1.34 0 0.68 0 0 Z " fill="#59BE37" transform="translate(551,190)"/>
<path d="M0 0 C1.20064087 -0.00688843 1.20064087 -0.00688843 2.42553711 -0.01391602 C6.72857094 -0.00261722 10.76260259 0.26937168 15 1.125 C15 1.455 15 1.785 15 2.125 C14.11965088 2.1343457 13.23930176 2.14369141 12.33227539 2.15332031 C-11.1272707 2.34300674 -11.1272707 2.34300674 -34 7.125 C-35.31005681 7.5052557 -36.62124951 7.88162164 -37.93359375 8.25390625 C-38.94550781 8.54136719 -39.95742188 8.82882812 -41 9.125 C-41 8.465 -41 7.805 -41 7.125 C-39.41058594 6.60099609 -39.41058594 6.60099609 -37.7890625 6.06640625 C-36.40101541 5.60685012 -35.01299601 5.14721036 -33.625 4.6875 C-32.57699219 4.34235352 -32.57699219 4.34235352 -31.5078125 3.99023438 C-27.68189163 2.73764601 -27.68189163 2.73764601 -24 1.125 C-16.03891174 0.15237836 -8.01084479 0.02563843 0 0 Z " fill="#DBF9CB" transform="translate(510,251.875)"/>
<path d="M0 0 C0.66 0 1.32 0 2 0 C3.32066755 2.39164168 4.63161792 4.78780216 5.9375 7.1875 C6.31068359 7.86103516 6.68386719 8.53457031 7.06835938 9.22851562 C9.00554868 12.80620758 10.49827956 15.8986345 11 20 C11.69609375 19.57847656 12.3921875 19.15695312 13.109375 18.72265625 C15.0872586 17.54394454 17.07761351 16.3859791 19.078125 15.24609375 C20.12484375 14.64925781 21.1715625 14.05242188 22.25 13.4375 C23.30703125 12.83808594 24.3640625 12.23867188 25.453125 11.62109375 C28.08936931 10.24993692 28.08936931 10.24993692 29 8 C30.65 8 32.3 8 34 8 C30.28776864 12.25993762 25.66218899 14.86861137 20.875 17.75 C20.05128906 18.25660156 19.22757813 18.76320313 18.37890625 19.28515625 C12.26092908 23 12.26092908 23 10 23 C9.69707031 22.2265625 9.39414062 21.453125 9.08203125 20.65625 C6.78499302 14.94545957 4.45076396 9.67570844 0.91796875 4.62109375 C0 3 0 3 0 0 Z " fill="#154832" transform="translate(725,580)"/>
<path d="M0 0 C1.65 0 3.3 0 5 0 C5 0.66 5 1.32 5 2 C5.969375 2.268125 6.93875 2.53625 7.9375 2.8125 C8.948125 3.204375 9.95875 3.59625 11 4 C11.33 4.99 11.66 5.98 12 7 C12.9075 7.12375 13.815 7.2475 14.75 7.375 C20.52124141 8.48485412 22.87648622 10.87648622 27 15 C29.16620544 16.29519995 29.16620544 16.29519995 31 17 C31 17.66 31 18.32 31 19 C32.32 19.33 33.64 19.66 35 20 C34.505 21.485 34.505 21.485 34 23 C32.51113281 21.948125 32.51113281 21.948125 30.9921875 20.875 C21.0304969 13.89712931 10.95356245 7.34384964 0 2 C0 1.34 0 0.68 0 0 Z " fill="#176230" transform="translate(669,536)"/>
<path d="M0 0 C-2.86982074 2.33837246 -5.57367409 3.64750293 -9 5 C-9.66 5.66 -10.32 6.32 -11 7 C-16.41176471 11 -16.41176471 11 -21 11 C-21.23460937 11.57234375 -21.46921875 12.1446875 -21.7109375 12.734375 C-23.29406585 15.51684301 -25.1991525 17.17070214 -27.625 19.25 C-28.44226563 19.95640625 -29.25953125 20.6628125 -30.1015625 21.390625 C-31.04128906 22.18726563 -31.04128906 22.18726563 -32 23 C-32.99 22.67 -33.98 22.34 -35 22 C-9.93396725 -2.98019017 -9.93396725 -2.98019017 0 0 Z " fill="#55C033" transform="translate(270,353)"/>
<path d="M0 0 C1.875 0.3125 1.875 0.3125 4 1 C7.2581981 5.88729715 7.22896999 11.22718093 7 17 C6.14375285 20.40260305 5.02193057 22.1795599 2 24 C-7.50615937 26.42590417 -18.29697885 24.755325 -28 24 C-28 23.67 -28 23.34 -28 23 C-27.29915283 22.98541748 -26.59830566 22.97083496 -25.8762207 22.95581055 C-22.68776991 22.88114513 -19.50034487 22.78454525 -16.3125 22.6875 C-14.65831055 22.65366211 -14.65831055 22.65366211 -12.97070312 22.61914062 C-11.3706543 22.5659668 -11.3706543 22.5659668 -9.73828125 22.51171875 C-8.75899658 22.48553467 -7.77971191 22.45935059 -6.77075195 22.43237305 C-2.55881059 21.77510385 0.11208373 20.07162308 2.8125 16.8125 C4.35800895 13.15208406 4.71814047 9.87795856 4 6 C2.87699006 3.70050346 1.61399912 2.0174989 0 0 Z " fill="#59C132" transform="translate(529,231)"/>
<path d="M0 0 C3.03336496 0.0548187 6.03850397 0.1737596 9.06640625 0.33984375 C9.97502914 0.38565079 10.88365204 0.43145782 11.81980896 0.47865295 C14.73431378 0.62671499 17.64838172 0.78203245 20.5625 0.9375 C22.53317867 1.038888 24.50388159 1.13980573 26.47460938 1.24023438 C31.316705 1.48802489 36.15842073 1.74232491 41 2 C41 2.33 41 2.66 41 3 C20.54 3 0.08 3 -21 3 C-21 2.67 -21 2.34 -21 2 C-20.39937744 1.97494385 -19.79875488 1.9498877 -19.17993164 1.92407227 C-16.47388563 1.8084472 -13.76821717 1.68557064 -11.0625 1.5625 C-10.11697266 1.52318359 -9.17144531 1.48386719 -8.19726562 1.44335938 C-7.29814453 1.40146484 -6.39902344 1.35957031 -5.47265625 1.31640625 C-4.64000244 1.27974854 -3.80734863 1.24309082 -2.94946289 1.20532227 C-0.99661142 1.20632897 -0.99661142 1.20632897 0 0 Z " fill="#063026" transform="translate(523,680)"/>
<path d="M0 0 C0.33 0 0.66 0 1 0 C1.02578125 1.02480469 1.0515625 2.04960937 1.078125 3.10546875 C1.13443058 4.46618699 1.19177737 5.82686243 1.25 7.1875 C1.26417969 7.86103516 1.27835937 8.53457031 1.29296875 9.22851562 C1.52852223 14.05736189 2.58686088 16.59327656 6 20 C9.69689635 21.84844818 13.96495927 21.47657961 18 21 C21.00832431 19.29659427 21.00832431 19.29659427 23 17 C23.66 16.34 24.32 15.68 25 15 C25.33 15.99 25.66 16.98 26 18 C23.9408116 20.58334545 21.92379745 22.43588722 19 24 C13.3036355 24.56614175 8.06530877 24.36913728 3.21875 21.15625 C0.05108102 18.07781113 -1.19334791 15.31925528 -2 11 C-1.9739508 1.9739508 -1.9739508 1.9739508 0 0 Z " fill="#5FC03B" transform="translate(390,320)"/>
<path d="M0 0 C5.03555223 0.11854188 10.07091893 0.24280963 15.10620117 0.37231445 C16.81807647 0.41554445 18.52999157 0.45722765 20.24194336 0.49731445 C22.70699034 0.55530714 25.17183918 0.61891697 27.63671875 0.68359375 C28.39836838 0.70030624 29.16001801 0.71701874 29.94474792 0.73423767 C33.7349605 0.83917914 37.3104722 1.10392627 41 2 C41 2.99 41 3.98 41 5 C39.79859375 4.67515625 38.5971875 4.3503125 37.359375 4.015625 C31.0113275 2.61101402 24.72435228 2.70831962 18.25 2.75 C16.47109375 2.73839844 16.47109375 2.73839844 14.65625 2.7265625 C7.54107484 2.74209782 0.77169578 3.3188934 -6.23608398 4.55908203 C-9.56348684 5.08989111 -12.64198417 5.15618678 -16 5 C-15.67 4.34 -15.34 3.68 -15 3 C-9.95057555 2.12940958 -5.1135805 1.89346707 0 2 C0 1.34 0 0.68 0 0 Z " fill="#64C936" transform="translate(488,226)"/>
<path d="M0 0 C1.60728492 4.09321893 0.45799258 7.97465101 -0.375 12.125 C-1.6135968 18.43266888 -2.35598384 24.55983843 -3 31 C-11.25 30.67 -19.5 30.34 -28 30 C-28 29.67 -28 29.34 -28 29 C-20.41 29 -12.82 29 -5 29 C-5 26.03 -5 23.06 -5 20 C-4.34 20 -3.68 20 -3 20 C-3.01160156 19.21753906 -3.02320313 18.43507813 -3.03515625 17.62890625 C-3.04417969 16.61699219 -3.05320312 15.60507812 -3.0625 14.5625 C-3.07410156 13.55316406 -3.08570313 12.54382813 -3.09765625 11.50390625 C-3 9 -3 9 -2 8 C-1.835 6.845 -1.67 5.69 -1.5 4.5 C-1 1 -1 1 0 0 Z " fill="#E7FDDA" transform="translate(344,307)"/>
<path d="M0 0 C0.99 0.33 1.98 0.66 3 1 C2.43152344 1.54527344 1.86304688 2.09054688 1.27734375 2.65234375 C-3.98722265 7.7938652 -8.59504359 13.1156848 -13 19 C-17.66372453 25.19664791 -17.66372453 25.19664791 -22 26 C-17.97445086 19.52275791 -13.48234841 13.97564812 -8.1875 8.5 C-7.50751953 7.78585938 -6.82753906 7.07171875 -6.12695312 6.3359375 C-1.84917092 1.84917092 -1.84917092 1.84917092 0 0 Z " fill="#79D945" transform="translate(393,227)"/>
<path d="M0 0 C1.28357735 3.85073206 0.42743265 4.79711033 -1.3125 8.375 C-4.71630325 14.75369528 -4.71630325 14.75369528 -5.9375 21.6875 C-6.02649272 26.40411404 -7.52231029 30.54933933 -9 35 C-9.66 35 -10.32 35 -11 35 C-9.43619071 22.42779634 -6.818819 10.81509407 0 0 Z " fill="#5ABD39" transform="translate(426,300)"/>
<path d="M0 0 C1 3 1 3 0.35083008 4.84667969 C-0.00599854 5.53149414 -0.36282715 6.21630859 -0.73046875 6.921875 C-1.11984619 7.69362061 -1.50922363 8.46536621 -1.91040039 9.26049805 C-2.33184326 10.08203369 -2.75328613 10.90356934 -3.1875 11.75 C-7.29563632 20.02898622 -10.06843803 27.96353176 -12 37 C-12.33 37 -12.66 37 -13 37 C-13.09765625 30.84765625 -13.09765625 30.84765625 -13 29 C-12.67 28.67 -12.34 28.34 -12 28 C-12.061875 27.113125 -12.12375 26.22625 -12.1875 25.3125 C-11.95248734 21.16060972 -10.39150983 19.33361977 -8 16 C-7.23060319 13.77397385 -7.23060319 13.77397385 -7 12 C-6.34 12 -5.68 12 -5 12 C-4.9175 10.948125 -4.835 9.89625 -4.75 8.8125 C-3.94679238 4.72952791 -2.80665291 2.9877273 0 0 Z " fill="#63C43B" transform="translate(404,283)"/>
<path d="M0 0 C0 2 0 2 -2.25 4.3125 C-3.1575 5.199375 -4.065 6.08625 -5 7 C-5.680625 7.9075 -6.36125 8.815 -7.0625 9.75 C-9.08758661 12.10171348 -9.97484531 12.67587628 -13 13 C-13 13.99 -13 14.98 -13 16 C-13.66 16 -14.32 16 -15 16 C-15.2475 16.7425 -15.495 17.485 -15.75 18.25 C-17.09147301 21.20124062 -18.60905526 22.84814974 -21 25 C-21.66 24.67 -22.32 24.34 -23 24 C-18.57397238 17.32752935 -13.77009401 11.47011952 -8.125 5.8125 C-7.55370361 5.23604736 -6.98240723 4.65959473 -6.39379883 4.06567383 C-2.25901657 0 -2.25901657 0 0 0 Z " fill="#E3FCD4" transform="translate(432,255)"/>
<path d="M0 0 C0.66 0.66 1.32 1.32 2 2 C1.01 2.495 1.01 2.495 0 3 C0 2.01 0 1.02 0 0 Z M-2 3 C-1.34 3 -0.68 3 0 3 C-0.875 9.875 -0.875 9.875 -2 11 C-2.27126673 12.38674224 -2.48981055 13.78391959 -2.68359375 15.18359375 C-2.80669922 16.02857422 -2.92980469 16.87355469 -3.05664062 17.74414062 C-3.30992918 19.53534535 -3.5599461 21.32701584 -3.80664062 23.11914062 C-3.93103516 23.96541016 -4.05542969 24.81167969 -4.18359375 25.68359375 C-4.29243896 26.46275146 -4.40128418 27.24190918 -4.51342773 28.04467773 C-5 30 -5 30 -7 32 C-7.72182514 22.5360704 -6.3035913 11.6071826 -2 3 Z " fill="#61C537" transform="translate(350,295)"/>
<path d="M0 0 C13.62681193 1.00158386 26.70615142 3.98731264 40 7 C40 7.33 40 7.66 40 8 C34.11694794 8.41044549 29.04468967 7.12827784 23.34375 5.72265625 C20.27253834 5.05890139 17.37981652 4.70660306 14.25 4.5 C9.15310631 4.14823201 4.74006984 2.86091631 0 1 C0 0.67 0 0.34 0 0 Z " fill="#C7EACC" transform="translate(553,505)"/>
<path d="M0 0 C-7.3942469 3.90508665 -14.81796613 7.49660088 -22.625 10.5 C-23.29917969 10.76699707 -23.97335937 11.03399414 -24.66796875 11.30908203 C-28.09340643 12.5884311 -30.53010343 13.47954981 -34 12 C-33.67 11.34 -33.34 10.68 -33 10 C-31.02 10.495 -31.02 10.495 -29 11 C-29 10.34 -29 9.68 -29 9 C-26.98177083 8.54427083 -24.96354167 8.08854167 -22.9453125 7.6328125 C-20.79280036 7.09525572 -20.79280036 7.09525572 -19 5 C-14.6978299 3.80103456 -10.38999979 2.82312496 -6 2 C-6 1.34 -6 0.68 -6 0 C-2.25 -1.125 -2.25 -1.125 0 0 Z " fill="#153531" transform="translate(634,723)"/>
<path d="M0 0 C-2.388093 2.8677465 -4.07666322 3.45340883 -7.74609375 3.87890625 C-8.66583984 3.99556641 -9.58558594 4.11222656 -10.53320312 4.23242188 C-11.49162109 4.34134766 -12.45003906 4.45027344 -13.4375 4.5625 C-15.33281211 4.78645653 -17.22739466 5.01669692 -19.12109375 5.25390625 C-19.9608374 5.35002197 -20.80058105 5.4461377 -21.66577148 5.54516602 C-24.07365231 6.01435145 -25.87066761 6.80238471 -28 8 C-28.99 7.34 -29.98 6.68 -31 6 C-10.25387324 -0.60316901 -10.25387324 -0.60316901 0 0 Z " fill="#78DA46" transform="translate(488,184)"/>
<path d="M0 0 C0.33 0 0.66 0 1 0 C1.24809955 2.6244748 1.4741699 5.24767145 1.6875 7.875 C1.76033203 8.62136719 1.83316406 9.36773437 1.90820312 10.13671875 C2.07421875 12.3046875 2.07421875 12.3046875 2 16 C-1.45662331 18.30441554 -2.94857881 18.25860135 -7 18 C-7.66 17.67 -8.32 17.34 -9 17 C-10.59262066 16.84824451 -12.19064856 16.75099675 -13.7890625 16.68359375 C-15.20058594 16.62075195 -15.20058594 16.62075195 -16.640625 16.55664062 C-17.62546875 16.51732422 -18.6103125 16.47800781 -19.625 16.4375 C-21.11386719 16.37272461 -21.11386719 16.37272461 -22.6328125 16.30664062 C-25.08839838 16.20038931 -27.54408703 16.09835036 -30 16 C-30 15.67 -30 15.34 -30 15 C-26.47918442 14.97072368 -22.95840061 14.95310881 -19.4375 14.9375 C-18.44685547 14.92912109 -17.45621094 14.92074219 -16.43554688 14.91210938 C-11.17451301 14.89463086 -6.18235335 15.07691602 -1 16 C-1.01160156 15.34773438 -1.02320313 14.69546875 -1.03515625 14.0234375 C-1.08470994 9.2238086 -0.99413751 4.72215315 0 0 Z " fill="#7ACA5C" transform="translate(342,322)"/>
<path d="M0 0 C2.475 0.495 2.475 0.495 5 1 C5 1.66 5 2.32 5 3 C5.78375 3.28875 6.5675 3.5775 7.375 3.875 C10 5 10 5 12 7 C11.67 7.99 11.34 8.98 11 10 C12.32 10.66 13.64 11.32 15 12 C15 12.66 15 13.32 15 14 C15.639375 14.2475 16.27875 14.495 16.9375 14.75 C19 16 19 16 19.62890625 18.078125 C19.75136719 18.71234375 19.87382813 19.3465625 20 20 C18.8274869 19.04882866 17.66212985 18.08882991 16.5 17.125 C15.8503125 16.59132813 15.200625 16.05765625 14.53125 15.5078125 C14.0259375 15.01023437 13.520625 14.51265625 13 14 C13 13.34 13 12.68 13 12 C12.01 11.67 11.02 11.34 10 11 C10 10.34 10 9.68 10 9 C9.40703125 8.74476563 8.8140625 8.48953125 8.203125 8.2265625 C5.78775462 6.88183502 4.48788294 5.50785633 2.75 3.375 C2.22921875 2.74335937 1.7084375 2.11171875 1.171875 1.4609375 C0.78515625 0.97882812 0.3984375 0.49671875 0 0 Z " fill="#1D5C3A" transform="translate(704,559)"/>
<path d="M0 0 C1.15886719 0.35707031 2.31773437 0.71414063 3.51171875 1.08203125 C6.3125 2.1875 6.3125 2.1875 7.3125 4.1875 C10.34184491 4.84522428 10.34184491 4.84522428 13.3125 5.1875 C13.3125 5.8475 13.3125 6.5075 13.3125 7.1875 C8.11684683 6.58774237 3.44340859 5.43715338 -1.5 3.75 C-2.16708984 3.53279297 -2.83417969 3.31558594 -3.52148438 3.09179688 C-6.46357662 2.10318263 -8.4639064 1.4110936 -10.6875 -0.8125 C-6.74986453 -2.33894141 -3.9201241 -1.24232376 0 0 Z " fill="#19712C" transform="translate(629.6875,518.8125)"/>
<path d="M0 0 C1.98 0.495 1.98 0.495 4 1 C4.061875 1.78375 4.12375 2.5675 4.1875 3.375 C4.455625 4.24125 4.72375 5.1075 5 6 C7.47636012 7.37466625 7.47636012 7.37466625 10 8 C10 8.99 10 9.98 10 11 C11.32 11.33 12.64 11.66 14 12 C14 12.66 14 13.32 14 14 C14.99 13.67 15.98 13.34 17 13 C17.33 13.99 17.66 14.98 18 16 C18.99 16.33 19.98 16.66 21 17 C21 17.66 21 18.32 21 19 C17.25979364 18.39950815 15.14356081 16.76172691 12.25 14.375 C11.38117188 13.66085937 10.51234375 12.94671875 9.6171875 12.2109375 C6.03683861 9.18634426 2.49440725 6.12349251 -1 3 C-0.67 2.01 -0.34 1.02 0 0 Z " fill="#187C2B" transform="translate(239,572)"/>
<path d="M0 0 C0.33 1.32 0.66 2.64 1 4 C-1.29492188 5.80664062 -1.29492188 5.80664062 -3.58984375 7.61328125 C-5.27155077 9.05683091 -5.27155077 9.05683091 -6 12 C-6.66 12 -7.32 12 -8 12 C-8 12.66 -8 13.32 -8 14 C-8.66 14 -9.32 14 -10 14 C-10 14.66 -10 15.32 -10 16 C-10.66 16 -11.32 16 -12 16 C-12 17.32 -12 18.64 -12 20 C-12.66 20 -13.32 20 -14 20 C-14.33 21.32 -14.66 22.64 -15 24 C-15.66 24 -16.32 24 -17 24 C-15.5824626 18.06872511 -12.34152415 14.2998312 -8.5 9.75 C-7.90574219 9.03070312 -7.31148438 8.31140625 -6.69921875 7.5703125 C-4.53381561 4.96009742 -2.39912519 2.39912519 0 0 Z " fill="#E4FAE5" transform="translate(299,548)"/>
<path d="M0 0 C2.69082872 0.17635452 5.32851446 0.61835921 8 1 C8 1.33 8 1.66 8 2 C4.10401783 2.83662618 0.20793742 3.67279318 -3.68823242 4.50854492 C-5.01215238 4.79260004 -6.33604599 5.07677804 -7.65991211 5.36108398 C-9.56877732 5.77099825 -11.47774698 6.18042603 -13.38671875 6.58984375 C-15.10701294 6.95903931 -15.10701294 6.95903931 -16.86206055 7.33569336 C-17.89758057 7.55491455 -18.93310059 7.77413574 -20 8 C-20.92014893 8.23533447 -21.84029785 8.47066895 -22.78833008 8.71313477 C-23.51818115 8.80780029 -24.24803223 8.90246582 -25 9 C-25.66 8.34 -26.32 7.68 -27 7 C-25.69289063 6.72736328 -25.69289063 6.72736328 -24.359375 6.44921875 C-11.30685772 4.8327982 -11.30685772 4.8327982 0 0 Z " fill="#268E31" transform="translate(392,504)"/>
<path d="M0 0 C2.83359844 -0.05449228 5.66612485 -0.09390733 8.5 -0.125 C9.29148437 -0.14175781 10.08296875 -0.15851563 10.8984375 -0.17578125 C16.27998079 -0.21989226 20.82999927 0.49405942 26 2 C22.14468025 4.68673837 18.50656471 3.85880395 14.125 3.1875 C13.08279297 3.04344727 13.08279297 3.04344727 12.01953125 2.89648438 C8.00171128 2.33277894 3.99902432 1.68321889 0 1 C0 0.67 0 0.34 0 0 Z " fill="#1B7E29" transform="translate(534,501)"/>
<path d="M0 0 C3.35414799 -0.02929977 6.70826253 -0.0468989 10.0625 -0.0625 C11.00544922 -0.07087891 11.94839844 -0.07925781 12.91992188 -0.08789062 C18.0630768 -0.10581103 22.93258427 0.10740389 28 1 C27.01 1.99 26.02 2.98 25 4 C24.67 3.67 24.34 3.34 24 3 C22.22130274 2.84235595 20.43681524 2.74899323 18.65234375 2.68359375 C17.57275391 2.64169922 16.49316406 2.59980469 15.38085938 2.55664062 C13.67639648 2.49766602 13.67639648 2.49766602 11.9375 2.4375 C10.79732422 2.39431641 9.65714844 2.35113281 8.48242188 2.30664062 C5.65507805 2.20017161 2.82764262 2.09815793 0 2 C0 1.34 0 0.68 0 0 Z " fill="#298E3A" transform="translate(696,347)"/>
<path d="M0 0 C2.11072968 3.65859811 2.98044455 7.55323326 3.9375 11.625 C5.43428092 17.81507701 7.07308284 23.92729137 9 30 C8.34 30 7.68 30 7 30 C6.67 27.69 6.34 25.38 6 23 C5.34 23 4.68 23 4 23 C3.5196682 21.41701974 3.04078388 19.83360022 2.5625 18.25 C2.16224609 16.92742188 2.16224609 16.92742188 1.75390625 15.578125 C0.60383041 11.64522316 -0.12308824 8.37000005 -0.0625 4.25 C-0.05347656 3.45078125 -0.04445312 2.6515625 -0.03515625 1.828125 C-0.02355469 1.22484375 -0.01195312 0.6215625 0 0 Z " fill="#CFF1CB" transform="translate(197,498)"/>
<path d="M0 0 C0.66 0.33 1.32 0.66 2 1 C1.60167969 1.79921875 1.20335937 2.5984375 0.79296875 3.421875 C-3.83991258 13.02580418 -6.79613147 22.40595691 -8 33 C-8.33 33 -8.66 33 -9 33 C-9 29.04 -9 25.08 -9 21 C-8.34 21 -7.68 21 -7 21 C-6.8453125 19.2984375 -6.8453125 19.2984375 -6.6875 17.5625 C-6.10889499 12.80602649 -4.64926303 8.48101654 -3 4 C-2.34 4 -1.68 4 -1 4 C-0.67 2.68 -0.34 1.36 0 0 Z " fill="#E1FCD5" transform="translate(424,300)"/>
<path d="M0 0 C0 0.66 0 1.32 0 2 C-1.52367187 2.07347656 -1.52367187 2.07347656 -3.078125 2.1484375 C-17.24133611 2.82657446 -17.24133611 2.82657446 -31 6 C-31.99 5.34 -32.98 4.68 -34 4 C-10.99313644 -0.19987521 -10.99313644 -0.19987521 0 0 Z " fill="#B8D4CD" transform="translate(460,597)"/>
<path d="M0 0 C-2.36555296 1.57703531 -4.25095108 2.60596218 -6.8359375 3.65625 C-7.57070313 3.95660156 -8.30546875 4.25695312 -9.0625 4.56640625 C-10.2071875 5.02853516 -10.2071875 5.02853516 -11.375 5.5 C-12.13039063 5.80808594 -12.88578125 6.11617188 -13.6640625 6.43359375 C-17.43683875 7.97040645 -21.21551386 9.4922366 -25 11 C-25 10.34 -25 9.68 -25 9 C-22.00893216 6.63496961 -19.97138418 5.08446819 -16.125 4.75 C-15.42375 4.8325 -14.7225 4.915 -14 5 C-14 4.34 -14 3.68 -14 3 C-12.35 3 -10.7 3 -9 3 C-9 2.34 -9 1.68 -9 1 C-5.92677456 0.08941469 -3.19902639 -0.08886184 0 0 Z " fill="#E4FCD7" transform="translate(289,342)"/>
<path d="M0 0 C3 2 3 2 4 5 C4.515625 5.515625 5.03125 6.03125 5.5625 6.5625 C6.036875 7.036875 6.51125 7.51125 7 8 C7 8.66 7 9.32 7 10 C7.66 10 8.32 10 9 10 C9.33 10.99 9.66 11.98 10 13 C10.66 13.639375 11.32 14.27875 12 14.9375 C14.05502754 17.05674715 14.59106845 18.13747914 15 21 C10.60813172 17.84260281 7.75130248 14.30852487 4.6875 9.9375 C4.23310547 9.31294922 3.77871094 8.68839844 3.31054688 8.04492188 C0 3.38028665 0 3.38028665 0 0 Z " fill="#198227" transform="translate(217,546)"/>
<path d="M0 0 C0 3 0 3 -1 5 C-1.99 5 -2.98 5 -4 5 C-4.226875 5.721875 -4.45375 6.44375 -4.6875 7.1875 C-6.25209743 10.54020878 -8.36536173 12.43122769 -11 15 C-12.29519995 17.16620544 -12.29519995 17.16620544 -13 19 C-13.99 18.67 -14.98 18.34 -16 18 C-14.27123863 15.77106329 -12.54033577 13.54389402 -10.8046875 11.3203125 C-9.48177237 9.61942162 -8.17398071 7.90673917 -6.875 6.1875 C-4.80032079 3.76704092 -2.54572316 1.90929237 0 0 Z " fill="#3FAE34" transform="translate(291,418)"/>
<path d="M0 0 C0 0.33 0 0.66 0 1 C-2.31 1 -4.62 1 -7 1 C-7 1.66 -7 2.32 -7 3 C-8.11375 3.12375 -9.2275 3.2475 -10.375 3.375 C-14.03103677 3.6465813 -14.03103677 3.6465813 -16 6 C-18.6015625 6.6328125 -18.6015625 6.6328125 -21.625 7.125 C-22.62789063 7.29257812 -23.63078125 7.46015625 -24.6640625 7.6328125 C-25.43492187 7.75398438 -26.20578125 7.87515625 -27 8 C-25.09068865 4.18137731 -19.85035909 3.36355242 -16 2 C-10.5840355 0.23711825 -5.65617261 -0.20200616 0 0 Z " fill="#C1EFAD" transform="translate(318,381)"/>
<path d="M0 0 C0 0.66 0 1.32 0 2 C0.99 2.33 1.98 2.66 3 3 C-1.35843207 4.23940347 -4.45636989 3.66253286 -8.8125 2.5625 C-9.97394531 2.27503906 -11.13539063 1.98757813 -12.33203125 1.69140625 C-13.21246094 1.46324219 -14.09289062 1.23507812 -15 1 C-15 0.67 -15 0.34 -15 0 C-9.77254141 -1.2063366 -5.23471686 -0.75612577 0 0 Z " fill="#1E7C31" transform="translate(616,514)"/>
<path d="M0 0 C-1.28258288 3.84774864 -3.07619086 4.88856664 -6.25 7.375 C-10.08453575 10.39081055 -13.60505938 13.49354674 -17 17 C-17 13.47899095 -16.41671132 12.89968686 -14.1875 10.3125 C-13.66542969 9.68988281 -13.14335937 9.06726563 -12.60546875 8.42578125 C-11 7 -11 7 -8 7 C-8 6.34 -8 5.68 -8 5 C-7.34 5 -6.68 5 -6 5 C-6 4.34 -6 3.68 -6 3 C-2.53846154 0 -2.53846154 0 0 0 Z " fill="#4DB839" transform="translate(279,394)"/>
<path d="M0 0 C0.33 0 0.66 0 1 0 C1.33560317 5.48151838 0.66944096 10.55706592 -0.375 15.9375 C-0.56412964 16.94985718 -0.56412964 16.94985718 -0.75708008 17.98266602 C-1.10126156 19.67093739 -1.54328207 21.33863614 -2 23 C-2.66 23.33 -3.32 23.66 -4 24 C-4 21.36 -4 18.72 -4 16 C-3.34 16 -2.68 16 -2 16 C-1.93941406 15.09636719 -1.87882813 14.19273437 -1.81640625 13.26171875 C-1.73261719 12.08222656 -1.64882813 10.90273438 -1.5625 9.6875 C-1.48128906 8.51574219 -1.40007813 7.34398437 -1.31640625 6.13671875 C-1 3 -1 3 0 0 Z " fill="#185C33" transform="translate(817,488)"/>
<path d="M0 0 C0.66 0.33 1.32 0.66 2 1 C-3.34388455 7.33480354 -9.08833812 13.19539034 -15 19 C-15.66 18.67 -16.32 18.34 -17 18 C-16.10796875 17.11957031 -15.2159375 16.23914063 -14.296875 15.33203125 C-13.11444899 14.15898957 -11.93216481 12.98580491 -10.75 11.8125 C-9.87021484 10.9452832 -9.87021484 10.9452832 -8.97265625 10.06054688 C-5.75018163 6.85617604 -2.75826734 3.62534642 0 0 Z " fill="#E0F4EA" transform="translate(787,562)"/>
<path d="M0 0 C9.46383622 0.45637789 18.67809502 1.18152232 28 3 C28 3.33 28 3.66 28 4 C25.87506859 4.02693575 23.75004088 4.04636628 21.625 4.0625 C20.44164062 4.07410156 19.25828125 4.08570313 18.0390625 4.09765625 C15 4 15 4 13 3 C9.88638233 2.72488371 6.77312062 2.55331352 3.65234375 2.37890625 C2.33943359 2.19134766 2.33943359 2.19134766 1 2 C0.67 1.34 0.34 0.68 0 0 Z " fill="#CAEECC" transform="translate(524,501)"/>
<path d="M0 0 C0.66 0 1.32 0 2 0 C2.867242 2.41267325 3.71896936 4.82904469 4.5625 7.25 C4.80935547 7.93191406 5.05621094 8.61382812 5.31054688 9.31640625 C7.47053761 15.58342161 7.47053761 15.58342161 6 19 C3.22385439 12.81676659 1.21654247 6.69098356 0 0 Z " fill="#25783D" transform="translate(809,423)"/>
<path d="M0 0 C1.2065625 0.0309375 1.2065625 0.0309375 2.4375 0.0625 C0.16856782 2.33143218 -2.05424645 3.53570511 -4.875 5.0625 C-5.81988281 5.578125 -6.76476562 6.09375 -7.73828125 6.625 C-10.30704584 7.93247631 -12.86897756 9.04200334 -15.5625 10.0625 C-15.5625 9.4025 -15.5625 8.7425 -15.5625 8.0625 C-14.758125 7.794375 -13.95375 7.52625 -13.125 7.25 C-12.279375 6.858125 -11.43375 6.46625 -10.5625 6.0625 C-10.2325 5.0725 -9.9025 4.0825 -9.5625 3.0625 C-6.5625 1.9375 -6.5625 1.9375 -3.5625 1.0625 C-2.5625 0.0625 -2.5625 0.0625 0 0 Z " fill="#55B832" transform="translate(294.5625,384.9375)"/>
<path d="M0 0 C-1.28264727 2.56529454 -2.22772349 2.66499863 -4.875 3.625 C-5.92300781 4.01558594 -5.92300781 4.01558594 -6.9921875 4.4140625 C-9 5 -9 5 -12 5 C-12.33 5.99 -12.66 6.98 -13 8 C-14.32 7.67 -15.64 7.34 -17 7 C-15.44038638 6.03697644 -13.87716775 5.07978996 -12.3125 4.125 C-11.44238281 3.59132813 -10.57226562 3.05765625 -9.67578125 2.5078125 C-2.76870281 -1.38435141 -2.76870281 -1.38435141 0 0 Z " fill="#CDF2CE" transform="translate(661,335)"/>
<path d="M0 0 C0.66 0 1.32 0 2 0 C0.32073668 4.36778087 -1.63305917 8.58165008 -3.625 12.8125 C-3.94984375 13.50537109 -4.2746875 14.19824219 -4.609375 14.91210938 C-5.40499885 16.60866023 -6.20232699 18.30441165 -7 20 C-8.25541557 16.23375329 -7.37061958 14.62811066 -6 11 C-5.34 11 -4.68 11 -4 11 C-3.34 8.03 -2.68 5.06 -2 2 C-1.34 2 -0.68 2 0 2 C0 1.34 0 0.68 0 0 Z " fill="#E3FCD0" transform="translate(359,268)"/>
<path d="M0 0 C0 3.15084005 -0.45473667 4.33871316 -2 7 C-2.66 7.66 -3.32 8.32 -4 9 C-4.33 9.99 -4.66 10.98 -5 12 C-5.99 12.33 -6.98 12.66 -8 13 C-7.55191038 8.07101421 -5.1603173 4.66242379 -2 1 C-1.34 0.67 -0.68 0.34 0 0 Z " fill="#6AD330" transform="translate(373,252)"/>
<path d="M0 0 C2 2 2 2 2.375 5.3125 C1.93956151 9.59431185 1.14417985 11.11075365 -2 14 C-4.64453125 14.6328125 -4.64453125 14.6328125 -7 15 C-6.57847656 14.41992188 -6.15695312 13.83984375 -5.72265625 13.2421875 C-1.46953991 7.18555508 -1.46953991 7.18555508 0 0 Z " fill="#4AAE2D" transform="translate(330,390)"/>
<path d="M0 0 C-1 2 -1 2 -3.6171875 3.0703125 C-5.22980469 3.59238281 -5.22980469 3.59238281 -6.875 4.125 C-7.94492187 4.47820313 -9.01484375 4.83140625 -10.1171875 5.1953125 C-13 6 -13 6 -16 6 C-16 5.34 -16 4.68 -16 4 C-15.2575 3.71125 -14.515 3.4225 -13.75 3.125 C-11.08733156 2.11679281 -11.08733156 2.11679281 -9.125 0.875 C-6.07063826 -0.38267836 -3.26253841 -0.12548225 0 0 Z " fill="#0A312A" transform="translate(577,744)"/>
<path d="M0 0 C1.875 0.3125 1.875 0.3125 4 1 C6.34770643 4.52155964 6.37669614 6.50771843 6.625 10.6875 C6.69976563 11.86699219 6.77453125 13.04648438 6.8515625 14.26171875 C6.90054688 15.16535156 6.94953125 16.06898438 7 17 C5.35 17.66 3.7 18.32 2 19 C2.33 18.34 2.66 17.68 3 17 C4.44389801 12.66830598 5.14100796 8.34650767 3.1015625 4.15234375 C1.91077601 2.31447388 1.91077601 2.31447388 0 0 Z " fill="#65C342" transform="translate(529,231)"/>
<path d="M0 0 C0.99 0.33 1.98 0.66 3 1 C-0.3 3.97 -3.6 6.94 -7 10 C-7.99 9.67 -8.98 9.34 -10 9 C-6.7 6.03 -3.4 3.06 0 0 Z " fill="#4DBA35" transform="translate(245,366)"/>
<path d="M0 0 C-0.33 0.66 -0.66 1.32 -1 2 C-3.31974234 2.41755362 -5.65785793 2.7355646 -8 3 C-12.03117821 3.55602458 -16.01866255 4.15547387 -20 5 C-15.08699134 -0.65693426 -6.98259698 -0.25391262 0 0 Z " fill="#64C63D" transform="translate(501,254)"/>
<path d="M0 0 C0 0.66 0 1.32 0 2 C-1.78398614 3.28006797 -3.62853906 4.47660351 -5.5 5.625 C-7.03140625 6.57246094 -7.03140625 6.57246094 -8.59375 7.5390625 C-9.3878125 8.02117187 -10.181875 8.50328125 -11 9 C-11.66 8.34 -12.32 7.68 -13 7 C-11.21190303 5.82786955 -9.41940875 4.66244474 -7.625 3.5 C-6.62726563 2.8503125 -5.62953125 2.200625 -4.6015625 1.53125 C-2 0 -2 0 0 0 Z " fill="#DBF8CF" transform="translate(291,389)"/>
<path d="M0 0 C0.99 0.33 1.98 0.66 3 1 C2.360625 1.433125 1.72125 1.86625 1.0625 2.3125 C-1.26746003 3.91239177 -1.26746003 3.91239177 -2 7 C-2.99 7.495 -2.99 7.495 -4 8 C-4.99 9.485 -4.99 9.485 -6 11 C-6.99 11 -7.98 11 -9 11 C-7.59155282 7.78475695 -5.89655214 5.67816132 -3.375 3.25 C-2.74335937 2.63640625 -2.11171875 2.0228125 -1.4609375 1.390625 C-0.73777344 0.70226562 -0.73777344 0.70226562 0 0 Z " fill="#188A27" transform="translate(644,369)"/>
<path d="M0 0 C4.75 0.75 4.75 0.75 7 3 C7.66 2.34 8.32 1.68 9 1 C9.33 3.31 9.66 5.62 10 8 C4.98886765 6.5682479 3.05530451 4.01554307 0 0 Z " fill="#103C2E" transform="translate(393,739)"/>
<path d="M0 0 C0.33 0.99 0.66 1.98 1 3 C-1.65308425 6.63851555 -4.23172413 9.48781609 -8 12 C-8.66 11.67 -9.32 11.34 -10 11 C-6.7 7.37 -3.4 3.74 0 0 Z " fill="#185B49" transform="translate(336,590)"/>
<path d="M0 0 C-1.93170681 1.34171264 -3.87056876 2.67312883 -5.8125 4 C-6.89144531 4.7425 -7.97039062 5.485 -9.08203125 6.25 C-12 8 -12 8 -15 8 C-14.67 7.01 -14.34 6.02 -14 5 C-12.02 4.67 -10.04 4.34 -8 4 C-7.67 3.01 -7.34 2.02 -7 1 C-2.55696203 -1.27848101 -2.55696203 -1.27848101 0 0 Z " fill="#1A8D2D" transform="translate(323,531)"/>
<path d="M0 0 C0.33 0 0.66 0 1 0 C1.3118744 4.26488247 0.34425989 6.98566073 -1.5 10.8125 C-1.9640625 11.78832031 -2.428125 12.76414062 -2.90625 13.76953125 C-3.2671875 14.50558594 -3.628125 15.24164063 -4 16 C-4.66 16 -5.32 16 -6 16 C-4.43551329 10.3856009 -2.83604813 5.13189662 0 0 Z " fill="#72CA48" transform="translate(354,282)"/>
<path d="M0 0 C1.65 0 3.3 0 5 0 C1.11327187 3.18005028 -2.89952133 6.10554447 -7 9 C-6.67 7.35 -6.34 5.7 -6 4 C-4.68 4 -3.36 4 -2 4 C-1.34 2.68 -0.68 1.36 0 0 Z " fill="#E1FCDC" transform="translate(295,412)"/>
<path d="M0 0 C4.55700425 0.52484692 7.192874 2.31507303 10.8125 5.0625 C11.78832031 5.79597656 12.76414062 6.52945313 13.76953125 7.28515625 C14.87361328 8.13400391 14.87361328 8.13400391 16 9 C15.01 9.33 14.02 9.66 13 10 C13 9.34 13 8.68 13 8 C12.46375 7.9175 11.9275 7.835 11.375 7.75 C6.89200745 6.33431814 3.12925477 3.47694974 0 0 Z " fill="#50B533" transform="translate(588,205)"/>
<path d="M0 0 C7.15595346 0.70156407 14.01855181 2.30785021 21 4 C13.81385206 6.05318512 6.87513171 3.19948882 0 1 C0 0.67 0 0.34 0 0 Z " fill="#6AC744" transform="translate(533,185)"/>
<path d="M0 0 C-1.91040052 0.8680908 -3.82860737 1.71901783 -5.75 2.5625 C-6.81734375 3.03816406 -7.8846875 3.51382813 -8.984375 4.00390625 C-11.98369837 4.9946154 -13.13421241 5.16161779 -16 4 C-15.67 3.34 -15.34 2.68 -15 2 C-13.02 2.495 -13.02 2.495 -11 3 C-11 2.34 -11 1.68 -11 1 C-3.375 -1.125 -3.375 -1.125 0 0 Z " fill="#0E302B" transform="translate(616,731)"/>
<path d="M0 0 C5.83094895 -0.21203451 11.44413776 0.03052586 17 2 C17.33 2.66 17.66 3.32 18 4 C11.85845775 3.41509121 5.99320151 2.45933748 0 1 C0 0.67 0 0.34 0 0 Z " fill="#DBFAC9" transform="translate(532,184)"/>
<path d="M0 0 C0.99 0.33 1.98 0.66 3 1 C0.36 4.63 -2.28 8.26 -5 12 C-5.66 11.67 -6.32 11.34 -7 11 C-4.69 7.37 -2.38 3.74 0 0 Z " fill="#153F35" transform="translate(457,755)"/>
<path d="M0 0 C0.33 0.66 0.66 1.32 1 2 C0.21072301 3.12667784 -0.58151655 4.25128067 -1.375 5.375 C-1.81585938 6.00148438 -2.25671875 6.62796875 -2.7109375 7.2734375 C-4 9 -4 9 -6 11 C-6.99 10.67 -7.98 10.34 -9 10 C-6.03 6.7 -3.06 3.4 0 0 Z " fill="#215A4A" transform="translate(400,670)"/>
<path d="M0 0 C-4.65921185 2.32960592 -9.81850387 3.10538636 -15 3 C-15.99 2.34 -16.98 1.68 -18 1 C-15.75152519 0.63627613 -13.50113812 0.28435904 -11.25 -0.0625 C-9.99703125 -0.25972656 -8.7440625 -0.45695313 -7.453125 -0.66015625 C-4.49983411 -0.95080818 -2.7397586 -0.98935727 0 0 Z " fill="#1C5D49" transform="translate(436,553)"/>
<path d="M0 0 C0.99 0.33 1.98 0.66 3 1 C-2.445 5.455 -2.445 5.455 -8 10 C-8.33 9.01 -8.66 8.02 -9 7 C-7.6875 5.5 -7.6875 5.5 -6 4 C-5.01 4 -4.02 4 -3 4 C-2.67 3.01 -2.34 2.02 -2 1 C-1.34 0.67 -0.68 0.34 0 0 Z " fill="#EAFDD6" transform="translate(408,212)"/>
<path d="M0 0 C5.75 1.875 5.75 1.875 8 3 C8 3.66 8 4.32 8 5 C9.32 5.33 10.64 5.66 12 6 C11.67 6.99 11.34 7.98 11 9 C9.16384919 7.69144447 7.33114211 6.37805538 5.5 5.0625 C4.4790625 4.33160156 3.458125 3.60070312 2.40625 2.84765625 C1.6121875 2.23792969 0.818125 1.62820313 0 1 C0 0.67 0 0.34 0 0 Z " fill="#1D6037" transform="translate(692,550)"/>
<path d="M0 0 C0.66 0.33 1.32 0.66 2 1 C2.144375 1.61875 2.28875 2.2375 2.4375 2.875 C2.83518238 5.09696386 2.83518238 5.09696386 4.5625 6.5625 C5.036875 7.036875 5.51125 7.51125 6 8 C6 8.99 6 9.98 6 11 C6.66 11.33 7.32 11.66 8 12 C7.01 12.33 6.02 12.66 5 13 C3.02 9.04 1.04 5.08 -1 1 C-0.67 0.67 -0.34 0.34 0 0 Z " fill="#26882C" transform="translate(210,533)"/>
<path d="M0 0 C11.52164009 0.77904328 11.52164009 0.77904328 17 3 C17 3.33 17 3.66 17 4 C10.66606918 4.34548714 5.89738492 3.29342747 0 1 C0 0.67 0 0.34 0 0 Z " fill="#DCF6DE" transform="translate(553,505)"/>
<path d="M0 0 C1.125 3.75 1.125 3.75 0 6 C-0.22467831 7.53668865 -0.40796805 9.07968054 -0.5625 10.625 C-0.64628906 11.44226563 -0.73007812 12.25953125 -0.81640625 13.1015625 C-0.87699219 13.72804688 -0.93757812 14.35453125 -1 15 C-3 13 -3 13 -3.3125 9.75 C-2.98188343 5.78260112 -1.9941069 3.40659929 0 0 Z " fill="#D7FADB" transform="translate(606,380)"/>
<path d="M0 0 C2.15059309 3.53186832 2.3797728 6.66287993 2.625 10.75 C2.69976562 11.92046875 2.77453125 13.0909375 2.8515625 14.296875 C2.90054688 15.18890625 2.94953125 16.0809375 3 17 C0.67775696 12.66514632 -0.13471301 9.16048478 -0.0625 4.25 C-0.05347656 3.45078125 -0.04445312 2.6515625 -0.03515625 1.828125 C-0.02355469 1.22484375 -0.01195312 0.6215625 0 0 Z " fill="#D7F5D2" transform="translate(197,498)"/>
<path d="M0 0 C0.66 0.33 1.32 0.66 2 1 C0.03681826 4.53372712 -2.04070881 7.24479785 -5 10 C-5.99 9.67 -6.98 9.34 -8 9 C-5.36 6.03 -2.72 3.06 0 0 Z " fill="#D1F5CB" transform="translate(269,403)"/>
<path d="M0 0 C0.33 0.66 0.66 1.32 1 2 C-0.80831392 5.61662784 -3.05278838 8.25604436 -6 11 C-6.66 10.67 -7.32 10.34 -8 10 C-5.36 6.7 -2.72 3.4 0 0 Z " fill="#7AD848" transform="translate(379,242)"/>
<path d="M0 0 C-3.60957611 3.2910841 -6.12637153 4.54663921 -11 5 C-11.33 4.34 -11.66 3.68 -12 3 C-4.71428571 -0.42857143 -4.71428571 -0.42857143 0 0 Z " fill="#214A41" transform="translate(517,720)"/>
<path d="M0 0 C0.66 0 1.32 0 2 0 C0.44298069 4.67105792 -2.08447373 8.08705685 -5 12 C-5.33 10.68 -5.66 9.36 -6 8 C-5.34 8 -4.68 8 -4 8 C-3.67 6.68 -3.34 5.36 -3 4 C-2.34 4 -1.68 4 -1 4 C-0.67 2.68 -0.34 1.36 0 0 Z " fill="#E7FED2" transform="translate(369,252)"/>
<path d="M0 0 C0.33 0.66 0.66 1.32 1 2 C-0.21484375 4.6015625 -0.21484375 4.6015625 -1.9375 7.625 C-2.50339844 8.62789063 -3.06929687 9.63078125 -3.65234375 10.6640625 C-4.09707031 11.43492187 -4.54179687 12.20578125 -5 13 C-5.66 13 -6.32 13 -7 13 C-5.35821735 8.22390502 -2.73453298 4.20617096 0 0 Z " fill="#D4F5CD" transform="translate(258,416)"/>
<path d="M0 0 C0.66 0.99 1.32 1.98 2 3 C-0.31 4.98 -2.62 6.96 -5 9 C-5.99 8.34 -6.98 7.68 -8 7 C-7.05125 6.401875 -6.1025 5.80375 -5.125 5.1875 C-1.86035803 3.18437474 -1.86035803 3.18437474 0 0 Z " fill="#56B936" transform="translate(414,335)"/>
<path d="M0 0 C0.66 0.33 1.32 0.66 2 1 C0.02 4.96 -1.96 8.92 -4 13 C-5.07349791 8.70600835 -4.79682816 7.80504787 -3 4 C-2.34 4 -1.68 4 -1 4 C-0.67 2.68 -0.34 1.36 0 0 Z " fill="#ECFEE2" transform="translate(424,300)"/>
<path d="M0 0 C0.66 0.66 1.32 1.32 2 2 C0.02 2.99 0.02 2.99 -2 4 C-2 4.66 -2 5.32 -2 6 C-3.96147874 7.38938077 -5.96166576 8.7260411 -8 10 C-7.67 8.35 -7.34 6.7 -7 5 C-5.68 5 -4.36 5 -3 5 C-2.690625 4.360625 -2.38125 3.72125 -2.0625 3.0625 C-1 1 -1 1 0 0 Z " fill="#35B621" transform="translate(592,272)"/>
<path d="M0 0 C0.33 0.66 0.66 1.32 1 2 C-0.62249941 2.83819158 -2.24808497 3.6704116 -3.875 4.5 C-5.23238281 5.19609375 -5.23238281 5.19609375 -6.6171875 5.90625 C-9 7 -9 7 -11 7 C-11 6.34 -11 5.68 -11 5 C-7.54269479 2.55954927 -4.03321763 1.21934486 0 0 Z " fill="#188D26" transform="translate(340,520)"/>
<path d="M0 0 C0.33 0 0.66 0 1 0 C1 2.31 1 4.62 1 7 C0.34 7 -0.32 7 -1 7 C-1.33 7.99 -1.66 8.98 -2 10 C-2.66 10 -3.32 10 -4 10 C-2.8905928 6.51329166 -1.73662334 3.22515763 0 0 Z " fill="#41AE37" transform="translate(210,409)"/>
<path d="M0 0 C0 2 0 2 -2.375 4.5 C-3.24125 5.325 -4.1075 6.15 -5 7 C-5.66 7.66 -6.32 8.32 -7 9 C-7.99 8.67 -8.98 8.34 -10 8 C-8.71451591 6.66070495 -7.42141845 5.32871357 -6.125 4 C-5.04605469 2.88625 -5.04605469 2.88625 -3.9453125 1.75 C-2 0 -2 0 0 0 Z " fill="#DCFCC9" transform="translate(432,255)"/>
<path d="M0 0 C3.63 0.33 7.26 0.66 11 1 C11.33 1.99 11.66 2.98 12 4 C7.80530429 3.40075776 3.99000166 2.42500059 0 1 C0 0.67 0 0.34 0 0 Z " fill="#E0FAD1" transform="translate(552,188)"/>
<path d="M0 0 C1.32 0.33 2.64 0.66 4 1 C1.69 3.31 -0.62 5.62 -3 8 C-3.33 7.01 -3.66 6.02 -4 5 C-2.0625 2.3125 -2.0625 2.3125 0 0 Z " fill="#316A57" transform="translate(352,632)"/>
<path d="M0 0 C1.98 0.495 1.98 0.495 4 1 C4.33 3.31 4.66 5.62 5 8 C3.02 6.35 1.04 4.7 -1 3 C-0.67 2.01 -0.34 1.02 0 0 Z " fill="#208531" transform="translate(239,572)"/>
<path d="M0 0 C3.75280614 1.69381313 5.27200884 3.18023006 7 7 C6.6875 9.3125 6.6875 9.3125 6 11 C6 10.34 6 9.68 6 9 C5.34 8.67 4.68 8.34 4 8 C2.9296875 6.15234375 2.9296875 6.15234375 1.875 3.9375 C1.52179687 3.20402344 1.16859375 2.47054688 0.8046875 1.71484375 C0.53914062 1.14894531 0.27359375 0.58304687 0 0 Z " fill="#1A7B2F" transform="translate(796,399)"/>
<path d="M0 0 C0.33 0.99 0.66 1.98 1 3 C-0.36328125 5.04296875 -0.36328125 5.04296875 -2.3125 7.1875 C-2.94800781 7.90292969 -3.58351562 8.61835938 -4.23828125 9.35546875 C-6 11 -6 11 -8 11 C-6.63629701 8.00779732 -5.05091917 5.70973471 -2.875 3.25 C-2.33617187 2.63640625 -1.79734375 2.0228125 -1.2421875 1.390625 C-0.62730469 0.70226562 -0.62730469 0.70226562 0 0 Z " fill="#4AAF35" transform="translate(234,376)"/>
<path d="M0 0 C-1.10699901 3.21029714 -2.01603825 4.00968977 -5 5.8125 C-5.99 6.204375 -6.98 6.59625 -8 7 C-8.66 6.67 -9.32 6.34 -10 6 C-8.71283353 4.99421411 -7.42011342 3.99553202 -6.125 3 C-5.40570313 2.443125 -4.68640625 1.88625 -3.9453125 1.3125 C-2 0 -2 0 0 0 Z " fill="#5BC13F" transform="translate(256,359)"/>
<path d="M0 0 C0.66 0 1.32 0 2 0 C3.65 3.3 5.3 6.6 7 10 C6.01 10.495 6.01 10.495 5 11 C4.15841464 9.73461631 3.32700252 8.46246221 2.5 7.1875 C1.80390625 6.12595703 1.80390625 6.12595703 1.09375 5.04296875 C0 3 0 3 0 0 Z " fill="#185035" transform="translate(725,580)"/>
<path d="M0 0 C0.66 0.33 1.32 0.66 2 1 C0.79618552 3.49361571 -0.45428722 5.68143083 -2 8 C-2.99 7.67 -3.98 7.34 -5 7 C-4.34 6.01 -3.68 5.02 -3 4 C-2.34 4 -1.68 4 -1 4 C-0.67 2.68 -0.34 1.36 0 0 Z " fill="#145236" transform="translate(785,560)"/>
<path d="M0 0 C0 0.66 0 1.32 0 2 C-2.65228812 3.07525194 -5.28368454 4.09456151 -8 5 C-8 4.34 -8 3.68 -8 3 C-8.99 2.67 -9.98 2.34 -11 2 C-9.5422647 1.664061 -8.08378894 1.33133376 -6.625 1 C-5.40683594 0.7215625 -5.40683594 0.7215625 -4.1640625 0.4375 C-2 0 -2 0 0 0 Z " fill="#1C5E4A" transform="translate(416,555)"/>
<path d="M0 0 C0.99 0.33 1.98 0.66 3 1 C1.02 3.97 -0.96 6.94 -3 10 C-4 7 -4 7 -3.22265625 5.17578125 C-2.1484375 3.45052083 -1.07421875 1.72526042 0 0 Z " fill="#3EA632" transform="translate(258,412)"/>
<path d="M0 0 C-4.10457614 2.98514628 -6.97745369 3.2954439 -12 3 C-8.61613364 -0.38386636 -4.56431325 -1.75550509 0 0 Z " fill="#51B240" transform="translate(316,408)"/>
<path d="M0 0 C-3.90028225 2.60018816 -7.47434569 2.15085514 -12 2 C-7.56043724 -0.29632557 -4.94312365 -1.20238143 0 0 Z " fill="#47B623" transform="translate(314,380)"/>
<path d="M0 0 C0.33 0.66 0.66 1.32 1 2 C0.22265625 4.1640625 0.22265625 4.1640625 -0.9375 6.625 C-1.31777344 7.44226563 -1.69804687 8.25953125 -2.08984375 9.1015625 C-2.39019531 9.72804688 -2.69054687 10.35453125 -3 11 C-3.33 11 -3.66 11 -4 11 C-3.56179109 6.44262737 -3.14958831 3.42346555 0 0 Z " fill="#64C830" transform="translate(359,274)"/>
<path d="M0 0 C0.99 0.495 0.99 0.495 2 1 C1.01 1.495 1.01 1.495 0 2 C0 1.34 0 0.68 0 0 Z M-2 1 C-1.34 1.66 -0.68 2.32 0 3 C-3.465 5.97 -3.465 5.97 -7 9 C-5.8141763 5.62496331 -4.72426311 3.35277269 -2 1 Z " fill="#2FB221" transform="translate(610,255)"/>
<path d="M0 0 C0 4.38968456 -2.12805101 5.76905739 -5 9 C-5.33 8.34 -5.66 7.68 -6 7 C-4.31525278 3.63050557 -3.1808342 2.12055614 0 0 Z " fill="#6CD931" transform="translate(385,237)"/>
<path d="M0 0 C0.33 0.99 0.66 1.98 1 3 C-2.63 2.67 -6.26 2.34 -10 2 C-10 1.67 -10 1.34 -10 1 C-6.59437148 0.22157062 -3.49234244 -0.09978121 0 0 Z " fill="#284B43" transform="translate(580,683)"/>
<path d="M0 0 C1.24546405 2.49092811 0.7767578 3.41080733 0 6 C-0.66 6 -1.32 6 -2 6 C-2.33 7.32 -2.66 8.64 -3 10 C-3.66 10 -4.32 10 -5 10 C-3.84414715 6.08788267 -2.64465038 3.1254959 0 0 Z " fill="#D3F3D6" transform="translate(287,562)"/>
<path d="M0 0 C-0.66 1.32 -1.32 2.64 -2 4 C-3.98 4 -5.96 4 -8 4 C-8 3.34 -8 2.68 -8 2 C-2.25 0 -2.25 0 0 0 Z " fill="#195F4B" transform="translate(387,563)"/>
<path d="M0 0 C0.99 0.33 1.98 0.66 3 1 C3.95024979 4.69541586 3.95024979 7.30458414 3 11 C0.87953208 7.46588679 0.46800711 4.05606165 0 0 Z " fill="#D1EED6" transform="translate(816,441)"/>
<path d="M0 0 C3.7952131 1.49097658 5.61042731 3.75700849 8 7 C4.84859577 6.65930765 3.39218439 6.41923159 1.1875 4.0625 C0 2 0 2 0 0 Z " fill="#147A2C" transform="translate(775,374)"/>
<path d="M0 0 C-1.6232687 0.6708712 -3.24867578 1.33657029 -4.875 2 C-6.23238281 2.556875 -6.23238281 2.556875 -7.6171875 3.125 C-10 4 -10 4 -12 4 C-11.67 3.01 -11.34 2.02 -11 1 C-6.90275533 -0.54613006 -4.18142349 -1.29227216 0 0 Z " fill="#E2FDE4" transform="translate(676,352)"/>
<path d="M0 0 C0 2 0 2 -1.125 3.5625 C-3.63946978 5.49026016 -5.89545967 5.65505107 -9 6 C-3.15384615 0 -3.15384615 0 0 0 Z " fill="#D6F8D6" transform="translate(644,343)"/>
<path d="M0 0 C1.46911544 3.81970016 0.52561108 6.30641529 -1 10 C-1.66 10.66 -2.32 11.32 -3 12 C-2.49202991 7.6822542 -1.80317221 3.96697886 0 0 Z " fill="#67C047" transform="translate(421,309)"/>
<path d="M0 0 C-4.22949995 2.41685712 -7.12335991 3.34833144 -12 3 C-8.61613364 -0.38386636 -4.56431325 -1.75550509 0 0 Z " fill="#74CB4F" transform="translate(483,258)"/>
<path d="M0 0 C0.33 0 0.66 0 1 0 C0.88637738 1.4800841 0.75877092 2.95910074 0.625 4.4375 C0.52058594 5.67306641 0.52058594 5.67306641 0.4140625 6.93359375 C0.27742187 7.61550781 0.14078125 8.29742187 0 9 C-0.99 9.495 -0.99 9.495 -2 10 C-2 7.36 -2 4.72 -2 2 C-1.34 2 -0.68 2 0 2 C0 1.34 0 0.68 0 0 Z " fill="#226242" transform="translate(815,502)"/>
<path d="M0 0 C1.32 0.33 2.64 0.66 4 1 C0.535 3.97 0.535 3.97 -3 7 C-3 6.01 -3 5.02 -3 4 C-2.34 4 -1.68 4 -1 4 C-0.67 2.68 -0.34 1.36 0 0 Z " fill="#D5F5D8" transform="translate(641,368)"/>
<path d="M0 0 C0.33 1.32 0.66 2.64 1 4 C0.34 4 -0.32 4 -1 4 C-1 5.32 -1 6.64 -1 8 C-2.98 8.99 -2.98 8.99 -5 10 C-3.66511872 6.40608886 -2.03977277 3.24509304 0 0 Z " fill="#DEFBCF" transform="translate(408,280)"/>
<path d="M0 0 C0.66 0 1.32 0 2 0 C0.86525052 3.40424844 0.03188696 4.21653709 -3 6 C-3.99 5.67 -4.98 5.34 -6 5 C-5.195625 4.360625 -4.39125 3.72125 -3.5625 3.0625 C-1.7249496 1.59396498 -1.7249496 1.59396498 0 0 Z " fill="#17503F" transform="translate(416,658)"/>
<path d="M0 0 C2.96865509 2.54456151 4.3619751 5.48994665 6 9 C5.34 9 4.68 9 4 9 C4 8.34 4 7.68 4 7 C3.01 7 2.02 7 1 7 C0.67 4.69 0.34 2.38 0 0 Z " fill="#DCF6D9" transform="translate(212,541)"/>
<path d="M0 0 C0.66 0.33 1.32 0.66 2 1 C1.0479279 2.00596297 0.08812654 3.00461563 -0.875 4 C-1.40867187 4.556875 -1.94234375 5.11375 -2.4921875 5.6875 C-4 7 -4 7 -6 7 C-6 6.34 -6 5.68 -6 5 C-5.34 5 -4.68 5 -4 5 C-3.71125 4.360625 -3.4225 3.72125 -3.125 3.0625 C-2 1 -2 1 0 0 Z " fill="#16911F" transform="translate(624,355)"/>
<path d="M0 0 C2.31 0.66 4.62 1.32 7 2 C7.33 3.65 7.66 5.3 8 7 C6.66382648 6.02471263 5.3311249 5.04466681 4 4.0625 C3.2575 3.51722656 2.515 2.97195312 1.75 2.41015625 C1.1725 1.94480469 0.595 1.47945312 0 1 C0 0.67 0 0.34 0 0 Z " fill="#D2F8C9" transform="translate(620,227)"/>
<path d="M0 0 C0.33 0 0.66 0 1 0 C1.33 2.64 1.66 5.28 2 8 C-0.475 7.01 -0.475 7.01 -3 6 C-2.67 5.34 -2.34 4.68 -2 4 C-1.34 4 -0.68 4 0 4 C0 2.68 0 1.36 0 0 Z " fill="#295D4B" transform="translate(336,677)"/>
<path d="M0 0 C2.64 0.33 5.28 0.66 8 1 C5 3 5 3 1.8125 2.625 C0.884375 2.41875 -0.04375 2.2125 -1 2 C-0.67 1.34 -0.34 0.68 0 0 Z " fill="#1C4A3D" transform="translate(591,603)"/>
<path d="M0 0 C2.64 0.33 5.28 0.66 8 1 C4.5980513 3.09350689 1.94727588 3.17942163 -2 3 C-1.34 2.01 -0.68 1.02 0 0 Z " fill="#285B4D" transform="translate(562,597)"/>
<path d="M0 0 C0.33 1.32 0.66 2.64 1 4 C-1.475 5.485 -1.475 5.485 -4 7 C-4 4 -4 4 -2 1.8125 C-1.34 1.214375 -0.68 0.61625 0 0 Z " fill="#D5F2D6" transform="translate(299,548)"/>
<path d="M0 0 C4.75 0.75 4.75 0.75 7 3 C3.37673261 4.2077558 2.35853631 3.54311128 -1 2 C-0.67 1.34 -0.34 0.68 0 0 Z " fill="#2A763B" transform="translate(643,525)"/>
<path d="M0 0 C0.66 0.33 1.32 0.66 2 1 C0.02 3.31 -1.96 5.62 -4 8 C-4.66 7.34 -5.32 6.68 -6 6 C-2.25 1.125 -2.25 1.125 0 0 Z " fill="#42AC32" transform="translate(267,403)"/>
<path d="M0 0 C0.66 0.33 1.32 0.66 2 1 C0.9375 2.5 0.9375 2.5 -1 4 C-4.6875 4.1875 -4.6875 4.1875 -8 4 C-6.66666667 3.33333333 -5.33333333 2.66666667 -4 2 C-3.29875 1.608125 -2.5975 1.21625 -1.875 0.8125 C-1.25625 0.544375 -0.6375 0.27625 0 0 Z " fill="#68C94A" transform="translate(286,343)"/>
<path d="M0 0 C0.66 0.33 1.32 0.66 2 1 C2 1.66 2 2.32 2 3 C-0.64 3.33 -3.28 3.66 -6 4 C-3.94766315 1.7522025 -2.99332739 0.9977758 0 0 Z " fill="#D5F6BE" transform="translate(466,234)"/>
<path d="M0 0 C-2.97 1.65 -5.94 3.3 -9 5 C-8.67 3.68 -8.34 2.36 -8 1 C-4.70594381 -0.82039948 -3.63772813 -1.21257604 0 0 Z " fill="#E6FED2" transform="translate(421,207)"/>
</svg>
