<svg id="LM" xmlns="http://www.w3.org/2000/svg" viewBox="0 0 674.07 108.83"><defs><style>.cls-1{fill:#23a73f;}.cls-2{fill:#5f6062;}</style></defs><path class="cls-1" d="M167.86,260c-10.72-3.73-14.61-8.08-14.92-16.79a21.82,21.82,0,0,0-5.44,14c0,9.48,5.13,14.92,18,19.12,21.14,6.84,30.16,11.66,35.45,18.81a25,25,0,0,1,5.13,15.24c0,19.12-21.77,29.85-52.71,29.85-28.6,0-49.59-9.18-49.59-21.61,0-11.2,15.24-18.5,39.8-18.5,23.16,0,37,7.46,37,18a8.32,8.32,0,0,1-4.35,7.62,8.9,8.9,0,0,0,5.28,1.24c9.49,0,15.55-5.75,15.55-14.61,0-17.26-23.94-29.08-52.86-29.08-35,0-60.32,14.62-60.32,34.83s27.05,33.89,67,33.89c41.82,0,71.05-16.63,71.05-44.15C222,286,208.6,274.16,167.86,260Z" transform="translate(-83.91 -243.22)"/><path class="cls-2" d="M289.24,317.62v22.7H238.67v-7.54h2.54c3.5,0,4.56-1,4.56-3.86V293.26c0-2.9-1.06-3.86-4.56-3.86h-2.54v-7.54h27.87v7.54H264c-3.51,0-4.56,1-4.56,3.86v35.66c0,2.9,1.05,3.86,4.56,3.86h4.9c8.24,0,12.1-2.19,12.62-13.41l.09-1.75Z" transform="translate(-83.91 -243.22)"/><path class="cls-2" d="M339.58,333.4c-.27,5.87-3.68,8.15-9.12,8.15-6.31,0-9.29-3.86-9.9-8.15l-2.37,3.85c-1.75,3-5.43,4.3-10.34,4.3-7.89,0-13-4.65-13-11.14,0-7.09,3.77-11,17.18-14,7.36-1.66,8.5-4.82,8.5-8s-2.19-5.79-6.05-5.79c-4,0-6.05,3-6.05,7a11.53,11.53,0,0,0,.35,2.9,13.76,13.76,0,0,1-4.38.61c-5.52,0-7.45-3-7.45-5.87,0-5.26,5.7-10.78,17.71-10.78,12.7,0,18.14,5.08,18.14,13.49v18.93c0,3.95,2,5,4.29,5A5.08,5.08,0,0,0,339.58,333.4ZM320,325.33V319l-6.31,2.54c-4.64,1.93-5.87,4-5.87,6.66,0,2.46,1.75,4.82,5.61,4.82C317.49,333,320,330.5,320,325.33Z" transform="translate(-83.91 -243.22)"/><path class="cls-2" d="M393.24,333.31v7H369.93v-7h.79c3.42,0,4.47-1,4.47-3.95v-16c0-5-2.63-7.72-6.75-7.72-5,0-7.45,3.24-7.45,8.24v15.51c0,3,1.06,3.95,4.56,3.95h.7v7H342.94v-7h.79c3.41,0,4.47-1,4.47-3.95V308.77c0-2.9-1.06-3.86-4.47-3.86h-.79v-7h17.62v8.15l3.06-5.26c1.4-2.36,4.82-4.12,9.47-4.12,9.38,0,14.9,5.35,14.9,15.34v17.35c0,3,1.05,3.95,4.55,3.95Z" transform="translate(-83.91 -243.22)"/><path class="cls-2" d="M399.85,329.1V304.91h-5.26v-6.66c7,0,9.38-5,10.35-11.31h7.71v11H424l-3.85,7h-7.45v21.47c0,5.26,2.71,6.75,7,6.75a8.12,8.12,0,0,0,3.86-.79c-.27,6-3.69,9.29-10.79,9.29C403.36,341.63,399.85,335.67,399.85,329.1Z" transform="translate(-83.91 -243.22)"/><path class="cls-2" d="M500.68,333.31v7H479.12v-7h.79c2.54,0,3.59-1,3.59-3.95V312.45c0-4.47-2.28-6.84-5.87-6.84-3.77,0-6.05,2.28-6.49,5.87v17.88c0,3,1.05,3.95,3.68,3.95h.71v7H454v-7h.79c2.55,0,3.6-1,3.6-3.95V312.45c0-4.47-2.28-6.84-5.88-6.84-4.29,0-6.57,2.89-6.57,7.36v16.39c0,3,1.06,3.95,3.69,3.95h.7v7H427.85v-7h.79c3.41,0,4.47-1,4.47-3.95V308.77c0-2.9-1.06-3.86-4.47-3.86h-.79v-7h17.62V306l3.06-5.17c1.41-2.36,4.38-4.12,8.59-4.12,7.1,0,11.83,3.33,13.41,9.47l3.15-5.35c1.41-2.36,4.39-4.12,8.59-4.12,8.85,0,14,5.09,14,14.38v18.31c0,3,1.05,3.95,3.68,3.95Z" transform="translate(-83.91 -243.22)"/><path class="cls-2" d="M549.52,333.4c-.26,5.87-3.68,8.15-9.11,8.15-6.31,0-9.29-3.86-9.9-8.15l-2.37,3.85c-1.75,3-5.44,4.3-10.34,4.3-7.89,0-13-4.65-13-11.14,0-7.09,3.76-11,17.17-14,7.37-1.66,8.51-4.82,8.51-8s-2.2-5.79-6-5.79c-4,0-6.05,3-6.05,7a11.53,11.53,0,0,0,.35,2.9,13.8,13.8,0,0,1-4.38.61c-5.52,0-7.45-3-7.45-5.87,0-5.26,5.7-10.78,17.7-10.78,12.71,0,18.14,5.08,18.14,13.49v18.93c0,3.95,2,5,4.3,5A5,5,0,0,0,549.52,333.4Zm-39.08-47.33a6.4,6.4,0,1,1,6.39,6.13A6.33,6.33,0,0,1,510.44,286.07ZM530,325.33V319l-6.31,2.54c-4.65,1.93-5.87,4-5.87,6.66,0,2.46,1.75,4.82,5.61,4.82C527.44,333,530,330.5,530,325.33Zm-2.72-39.26a6.41,6.41,0,1,1,6.4,6.13A6.34,6.34,0,0,1,527.26,286.07Z" transform="translate(-83.91 -243.22)"/><path class="cls-2" d="M603.19,333.31v7H579.88v-7h.79c3.42,0,4.47-1,4.47-3.95v-16c0-5-2.63-7.72-6.75-7.72-5,0-7.45,3.24-7.45,8.24v15.51c0,3,1,3.95,4.56,3.95h.7v7H552.89v-7h.79c3.41,0,4.47-1,4.47-3.95V308.77c0-2.9-1.06-3.86-4.47-3.86h-.79v-7H570.5v8.15l3.07-5.26c1.4-2.36,4.82-4.12,9.46-4.12,9.38,0,14.91,5.35,14.91,15.34v17.35c0,3,1,3.95,4.55,3.95Z" transform="translate(-83.91 -243.22)"/><path class="cls-2" d="M657.74,333.31v7H634.43v-7h.79c3.42,0,4.47-1,4.47-3.95v-16c0-5-2.63-7.72-6.75-7.72-5,0-7.45,3.24-7.45,8.24v15.51c0,3,1,3.95,4.56,3.95h.7v7H607.43v-7h.79c3.42,0,4.47-1,4.47-3.95V308.77c0-2.9-1.05-3.86-4.47-3.86h-.79v-7h17.62v8.15l3.07-5.26c1.4-2.36,4.82-4.12,9.46-4.12,9.38,0,14.9,5.35,14.9,15.34v17.35c0,3,1,3.95,4.56,3.95Z" transform="translate(-83.91 -243.22)"/><path class="cls-2" d="M685.12,333.92c6.31,0,9-4.12,9.64-8.68h7.54c-1.76,11.22-9.82,16.48-19.29,16.48-12.35,0-21.64-8.41-21.64-22.52,0-13.68,9.29-22.79,20.94-22.79,13.06,0,20.42,9,20.42,20.42,0,1.14,0,2.19-.08,3.77h-28C675,331.2,680,333.92,685.12,333.92Zm-10.26-19.63H690.2c-.35-6.49-2.72-10.69-7.36-10.69C678.54,303.6,675.65,306.58,674.86,314.29Z" transform="translate(-83.91 -243.22)"/><path class="cls-2" d="M758,333.31v7H734.67v-7h.79c3.42,0,4.47-1,4.47-3.95v-16c0-5-2.63-7.72-6.75-7.72-5,0-7.45,3.24-7.45,8.24v15.51c0,3,1,3.95,4.56,3.95h.7v7H707.68v-7h.79c3.41,0,4.46-1,4.46-3.95V308.77c0-2.9-1-3.86-4.46-3.86h-.79v-7h17.61v8.15l3.07-5.26c1.4-2.36,4.82-4.12,9.46-4.12,9.38,0,14.9,5.35,14.9,15.34v17.35c0,3,1,3.95,4.56,3.95Z" transform="translate(-83.91 -243.22)"/></svg>